<?xml version="1.0" encoding="UTF-8" standalone="no"?>
<!-- Created with Inkscape (http://www.inkscape.org/) -->

<svg
   xmlns:dc="http://purl.org/dc/elements/1.1/"
   xmlns:cc="http://creativecommons.org/ns#"
   xmlns:rdf="http://www.w3.org/1999/02/22-rdf-syntax-ns#"
   xmlns:svg="http://www.w3.org/2000/svg"
   xmlns="http://www.w3.org/2000/svg"
   xmlns:sodipodi="http://sodipodi.sourceforge.net/DTD/sodipodi-0.dtd"
   xmlns:inkscape="http://www.inkscape.org/namespaces/inkscape"
   width="1344"
   height="756"
   viewBox="0 0 1344 756"
   id="svg2"
   version="1.1"
   inkscape:version="0.91 r13725"
   sodipodi:docname="lower-back.svg"
   inkscape:export-filename="C:\Users\PhroZen\Desktop\valhalla-starter-example.png"
   inkscape:export-xdpi="90"
   inkscape:export-ydpi="90">
  <defs
     id="defs4">
    <filter
       style="color-interpolation-filters:sRGB;"
       inkscape:label="Drop Shadow"
       id="filter4387">
      <feFlood
         flood-opacity="0.509804"
         flood-color="rgb(0,0,0)"
         result="flood"
         id="feFlood4389" />
      <feComposite
         in="flood"
         in2="SourceGraphic"
         operator="in"
         result="composite1"
         id="feComposite4391" />
      <feGaussianBlur
         in="composite1"
         stdDeviation="0"
         result="blur"
         id="feGaussianBlur4393" />
      <feOffset
         dx="1"
         dy="2"
         result="offset"
         id="feOffset4395" />
      <feComposite
         in="SourceGraphic"
         in2="offset"
         operator="over"
         result="composite2"
         id="feComposite4397" />
    </filter>
    <filter
       style="color-interpolation-filters:sRGB;"
       inkscape:label="Drop Shadow"
       id="filter4823">
      <feFlood
         flood-opacity="1"
         flood-color="rgb(255,255,255)"
         result="flood"
         id="feFlood4825" />
      <feComposite
         in="flood"
         in2="SourceGraphic"
         operator="in"
         result="composite1"
         id="feComposite4827" />
      <feGaussianBlur
         in="composite1"
         stdDeviation="1"
         result="blur"
         id="feGaussianBlur4829" />
      <feOffset
         dx="1"
         dy="1"
         result="offset"
         id="feOffset4831" />
      <feComposite
         in="SourceGraphic"
         in2="offset"
         operator="over"
         result="composite2"
         id="feComposite4833" />
    </filter>
    <filter
       style="color-interpolation-filters:sRGB;"
       inkscape:label="Drop Shadow"
       id="filter4835">
      <feFlood
         flood-opacity="1"
         flood-color="rgb(255,255,255)"
         result="flood"
         id="feFlood4837" />
      <feComposite
         in="flood"
         in2="SourceGraphic"
         operator="in"
         result="composite1"
         id="feComposite4839" />
      <feGaussianBlur
         in="composite1"
         stdDeviation="1"
         result="blur"
         id="feGaussianBlur4841" />
      <feOffset
         dx="1"
         dy="1"
         result="offset"
         id="feOffset4843" />
      <feComposite
         in="SourceGraphic"
         in2="offset"
         operator="over"
         result="composite2"
         id="feComposite4845" />
    </filter>
    <filter
       style="color-interpolation-filters:sRGB"
       inkscape:label="Drop Shadow"
       id="filter4387-2">
      <feFlood
         flood-opacity="0.509804"
         flood-color="rgb(0,0,0)"
         result="flood"
         id="feFlood4389-6" />
      <feComposite
         in="flood"
         in2="SourceGraphic"
         operator="in"
         result="composite1"
         id="feComposite4391-5" />
      <feGaussianBlur
         in="composite1"
         stdDeviation="0"
         result="blur"
         id="feGaussianBlur4393-4" />
      <feOffset
         dx="1"
         dy="2"
         result="offset"
         id="feOffset4395-7" />
      <feComposite
         in="SourceGraphic"
         in2="offset"
         operator="over"
         result="composite2"
         id="feComposite4397-3" />
    </filter>
    <filter
       style="color-interpolation-filters:sRGB"
       inkscape:label="Drop Shadow"
       id="filter4387-2-5">
      <feFlood
         flood-opacity="0.509804"
         flood-color="rgb(0,0,0)"
         result="flood"
         id="feFlood4389-6-6" />
      <feComposite
         in="flood"
         in2="SourceGraphic"
         operator="in"
         result="composite1"
         id="feComposite4391-5-0" />
      <feGaussianBlur
         in="composite1"
         stdDeviation="0"
         result="blur"
         id="feGaussianBlur4393-4-5" />
      <feOffset
         dx="1"
         dy="2"
         result="offset"
         id="feOffset4395-7-3" />
      <feComposite
         in="SourceGraphic"
         in2="offset"
         operator="over"
         result="composite2"
         id="feComposite4397-3-4" />
    </filter>
    <filter
       style="color-interpolation-filters:sRGB"
       inkscape:label="Drop Shadow"
       id="filter4387-2-52">
      <feFlood
         flood-opacity="0.509804"
         flood-color="rgb(0,0,0)"
         result="flood"
         id="feFlood4389-6-61" />
      <feComposite
         in="flood"
         in2="SourceGraphic"
         operator="in"
         result="composite1"
         id="feComposite4391-5-2" />
      <feGaussianBlur
         in="composite1"
         stdDeviation="0"
         result="blur"
         id="feGaussianBlur4393-4-6" />
      <feOffset
         dx="1"
         dy="2"
         result="offset"
         id="feOffset4395-7-7" />
      <feComposite
         in="SourceGraphic"
         in2="offset"
         operator="over"
         result="composite2"
         id="feComposite4397-3-8" />
    </filter>
  </defs>
  <sodipodi:namedview
     id="base"
     pagecolor="#ffffff"
     bordercolor="#666666"
     borderopacity="1.0"
     inkscape:pageopacity="0.0"
     inkscape:pageshadow="2"
     inkscape:zoom="0.5"
     inkscape:cx="511.41264"
     inkscape:cy="459.14158"
     inkscape:document-units="px"
     inkscape:current-layer="layer4"
     showgrid="false"
     units="px"
     width="1152px"
     borderlayer="true"
     showborder="true"
     inkscape:window-width="1920"
     inkscape:window-height="1017"
     inkscape:window-x="1912"
     inkscape:window-y="-8"
     inkscape:window-maximized="1" />
  <metadata
     id="metadata7">
    <rdf:RDF>
      <cc:Work
         rdf:about="">
        <dc:format>image/svg+xml</dc:format>
        <dc:type
           rdf:resource="http://purl.org/dc/dcmitype/StillImage" />
        <dc:title />
      </cc:Work>
    </rdf:RDF>
  </metadata>
  <g
     inkscape:groupmode="layer"
     id="layer4"
     inkscape:label="Decor"
     style="display:inline">
    <path
       style="fill:#000000;fill-opacity:0.4290221"
       d="m 25.426038,415.32364 c -1.903165,0.13711 -4.443801,1.78489 -8.881118,5.23466 -5.440116,4.22937 -6.79708,5.70762 -10.8434767,11.80701 C 3.6334046,435.48262 1.6561171,439.40474 0,443.51533 l 0,13.83069 c 0.37871864,-2.09689 0.77803985,-3.85433 1.2211065,-5.36394 1.8184116,-6.19574 6.878891,-16.65737 9.8332535,-20.32916 2.800947,-3.48107 10.775253,-10.06278 13.434696,-11.08803 l 1.693386,-0.65301 -1.521647,2.30995 c -1.843858,2.79794 -3.321776,7.94422 -4.014372,13.97976 -0.638635,5.56519 -0.552898,8.02824 0.482381,13.82013 1.509751,8.44629 10.426653,31.48681 13.978953,36.12021 0.619599,0.80817 2.707861,3.65492 4.639447,6.32564 3.909511,5.40566 4.323462,5.93101 8.468191,10.72261 3.737222,4.32054 6.306009,6.88821 11.37258,11.37299 2.247881,1.98977 4.688685,4.18356 5.424896,4.87451 3.181562,2.98599 16.12135,11.38706 24.555984,15.94275 6.750848,3.64626 10.767215,5.49764 15.333915,7.07101 3.40287,1.1724 7.93121,2.73334 10.06308,3.46823 2.13191,0.73487 3.91417,1.40226 3.96007,1.48412 0.10044,0.1772 -8.79379,3.33979 -11.32711,4.02757 -1.3874,0.37666 -2.59976,0.11679 -5.55497,-1.19125 -15.57819,-6.89517 -26.16635,-13.04089 -35.649489,-20.69326 -4.216835,-3.4027 -7.948811,-6.54341 -8.293929,-6.97998 -0.852051,-1.0776 -5.559915,-5.16475 -6.402284,-5.55788 -0.718061,-0.33513 -6.21623,-6.51749 -9.294048,-10.45084 -3.996885,-5.10789 -10.576999,-14.69112 -11.346062,-16.52453 -0.284257,-0.67739 -1.017096,-2.01537 -1.627721,-2.9722 -3.176592,-4.97558 -8.404663,-17.46565 -9.392543,-22.4399 -0.309599,-1.55898 -0.629675,-3.01016 -0.712208,-3.22549 -0.08245,-0.21529 -0.648399,-2.79348 -1.256463,-5.72937 -1.284021,-6.19956 -1.404861,-9.09166 -0.597294,-14.26339 0.321691,-2.05999 0.419795,-3.82155 0.21846,-3.91544 -0.200417,-0.0939 -0.265668,-0.70306 -0.143957,-1.35352 0.121717,-0.65036 -0.183952,-1.37227 -0.678112,-1.60285 -0.719861,-0.33594 -1.002772,-0.0523 -1.424413,1.42475 -2.831007,9.91726 -2.693892,15.58266 0.668009,27.4846 1.452902,5.14381 1.25338,4.58674 4.29976,11.96399 3.37162,8.16482 4.09132,9.79169 5.01828,11.34265 0.439638,0.73567 1.187379,2.11751 1.661817,3.07114 0.728646,1.4641 4.822133,7.9281 7.590558,11.98641 1.483047,2.17415 12.12283,15.35215 15.048528,18.63792 4.37429,4.91256 10.463919,10.16958 18.06909,15.59976 4.435864,3.16723 18.887589,11.86266 24.769393,14.90321 1.906724,0.98573 2.978385,1.84958 2.941016,2.36799 -0.07044,0.94753 -7.272764,3.37967 -15.087679,5.09483 -4.633114,1.01679 -16.187926,3.94651 -18.710581,4.74391 -0.451744,0.14278 -2.179818,0.59758 -3.840108,1.01052 -1.660294,0.41291 -6.973651,1.90008 -11.806976,3.30597 -6.071261,1.76596 -9.198184,2.37157 -10.11359,1.95508 C 30.743123,567.05825 18.915604,550.5207 12.87276,537.1561 9.1546775,528.93301 8.7846681,527.98898 7.2660253,522.85182 6.557901,520.45638 5.3682684,516.68536 4.621768,514.47215 3.8753165,512.25896 3.3466526,510.27411 3.4473843,510.06067 3.5481425,509.84721 3.3541015,508.80311 3.0155142,507.74017 2.525277,506.20128 1.0315669,499.4074 0,494.29601 L 0,512.554 c 0.39174957,1.23962 0.85995594,2.91767 1.200902,4.34155 1.0554361,4.40765 6.784942,20.8629 7.3569452,21.12992 0.2270953,0.1062 0.7039252,0.89097 1.0594715,1.744 1.8020003,4.32322 3.8403183,8.38074 4.9071553,9.7675 0.655472,0.85198 2.227038,3.24358 3.491582,5.31645 1.265089,2.07248 4.304561,6.29532 6.7546,9.38359 2.450149,3.08828 4.356011,5.86758 4.234095,6.17527 -0.201172,0.50853 -5.069139,1.0915 -15.991822,1.91683 -2.20311,0.16648 -4.6162369,0.36806 -5.3617563,0.44721 C 6.3590705,572.91353 3.2061895,573.0713 0,573.20111 l 0,4.47611 c 2.6741714,-0.079 5.8685877,-0.18794 10.334577,-0.35487 9.324805,-0.34853 15.358047,-0.93071 16.076428,-1.55141 0.199339,-0.17232 0.604802,-0.19914 0.901624,-0.0607 0.998166,0.46584 14.167366,-2.4205 21.047985,-4.61331 3.751,-1.19542 14.076381,-4.04356 22.944679,-6.32829 8.868347,-2.28476 17.923063,-4.67162 20.122371,-5.30458 2.199261,-0.63296 5.496663,-1.39013 7.326637,-1.68332 1.829949,-0.29316 7.182449,-1.70072 11.895369,-3.12787 4.71293,-1.4271 10.17388,-3.00346 12.1353,-3.50253 1.96143,-0.49911 7.37205,-2.16912 12.02417,-3.71096 10.06904,-3.33717 11.82378,-3.83021 17.65111,-4.96421 4.6439,-0.90367 12.39542,-3.36516 12.71239,-4.03681 0.24937,-0.52847 12.18573,-3.02261 19.71828,-4.11992 7.16346,-1.0435 17.65621,-1.49845 22.93332,-0.99338 14.21441,1.36039 17.04201,1.9062 28.20415,5.43255 8.05947,2.54616 25.80025,11.48523 35.47775,17.87673 1.88969,1.24805 7.78402,5.02603 13.09879,8.39551 5.3148,3.36947 11.0985,7.07689 12.8513,8.23984 8.4675,5.61765 25.44681,13.86242 47.66482,23.14304 11.53539,4.81841 14.82566,5.64485 23.88545,6.00376 1.04279,0.0415 3.28819,0.19446 4.9905,0.33904 1.70228,0.14464 3.83201,0.23501 4.73289,0.20184 0.90099,-0.0345 1.82955,0.0261 2.06339,0.13325 0.23392,0.10698 2.50914,-0.10919 5.05616,-0.48152 5.27011,-0.77038 14.39123,-4.05684 18.60451,-6.70295 5.75446,-3.61403 9.51848,-11.12785 9.24733,-18.46114 -0.0725,-1.95812 -0.0107,-2.06719 1.20594,-2.13318 2.14398,-0.11603 4.47,1.33078 6.80638,4.23338 3.77705,4.69263 5.09858,11.30558 3.73025,18.66298 -0.54113,2.90941 -2.31805,5.34785 -7.34053,10.07619 -2.85693,2.68967 -3.9795,5.36352 -4.5902,10.9284 -0.32713,2.9811 0.24808,10.6082 0.88773,11.77403 0.13044,0.2377 0.64742,2.21526 1.14913,4.39432 1.11298,4.83377 1.11922,10.5817 0.0164,14.79503 l 0,0.001 c -0.45368,1.73317 -1.18537,3.85063 -1.62645,4.70564 -1.41335,2.74011 -3.99435,6.7248 -4.46645,6.89557 -0.25159,0.091 -1.01555,-0.4273 -1.69718,-1.15037 -0.68167,-0.72312 -4.13588,-2.78485 -7.67642,-4.58296 -5.31378,-2.6985 -7.27483,-3.42654 -11.23115,-4.17005 -9.32576,-1.75269 -15.71061,-1.07211 -25.49296,2.71891 -7.48686,2.90139 -11.57112,4.85528 -16.38581,7.83748 -2.1044,1.30356 -5.87258,3.25587 -8.37475,4.3389 -7.92792,3.43155 -22.25869,6.64374 -28.48322,6.38371 -2.34046,-0.0978 -10.71824,-1.76368 -10.84853,-2.15692 -0.0402,-0.12156 0.75659,-1.56904 1.77042,-3.21759 2.0506,-3.33445 4.47603,-12.45521 4.25935,-16.0153 -0.0665,-1.09188 -0.14861,-2.72037 -0.18184,-3.61994 -0.0684,-1.85111 -1.51836,-6.49565 -2.11515,-6.77418 -0.21602,-0.10087 -0.8688,-1.02746 -1.45094,-2.0593 -0.58212,-1.03188 -2.71267,-3.36648 -4.73415,-5.18717 -3.11334,-2.80399 -5.04918,-3.99766 -12.65683,-7.81109 -4.93966,-2.47605 -8.95586,-4.55785 -8.92406,-4.62519 0.0319,-0.0675 0.84949,-0.73815 1.81588,-1.49071 1.4111,-1.09895 2.44428,-2.82036 5.25064,-8.73982 1.92147,-4.05388 3.9647,-8.86073 4.54094,-10.68171 1.25947,-3.97973 2.11168,-11.3712 1.5305,-13.2753 -0.40155,-1.31555 -0.28942,-1.31229 2.6935,0.0884 2.93809,1.37868 3.1296,1.58673 3.41834,3.7202 0.46128,3.40812 0.28152,8.93265 -0.37505,11.51545 -0.32151,1.26442 -1.8733,4.92939 -3.44865,8.14485 -1.57533,3.21546 -2.71304,6.07914 -2.52682,6.36259 0.56537,0.86463 4.47123,-3.35714 6.72557,-7.26889 2.68597,-4.66085 3.91607,-9.57951 3.56986,-14.27263 -0.14568,-1.97547 -0.20706,-3.71359 -0.13638,-3.86266 0.0705,-0.1494 1.88145,0.54597 4.02448,1.54613 3.46188,1.61562 3.91886,1.99158 4.10277,3.36268 0.50522,3.76665 -0.44728,7.72422 -3.69616,15.35042 -3.16076,7.41937 -3.42588,9.2446 -0.77155,5.31382 0.70208,-1.0397 1.53584,-2.06024 1.8525,-2.26642 1.80634,-1.17772 3.38893,-4.21018 5.04858,-9.67383 0.98282,-3.23558 1.75951,-6.41788 1.72622,-7.07101 -0.0563,-1.09818 0.256,-1.03952 4.15959,0.7823 5.22484,2.43839 5.38652,3.04626 2.26921,8.53666 -1.15386,2.0331 -2.20453,4.26579 -2.33488,4.96158 -0.23002,1.22888 -0.17931,1.23866 1.76789,0.37334 1.8531,-0.82359 2.14105,-1.22351 3.81486,-5.29667 l 1.81082,-4.40486 3.7997,1.32845 c 2.08957,0.73107 3.8651,1.51287 3.94618,1.73741 0.24071,0.66712 -0.75902,4.74961 -1.61509,6.60005 -0.43739,0.94506 -0.5712,1.82243 -0.29802,1.9498 0.76681,0.35787 3.49926,-3.60313 3.84516,-5.5737 0.37191,-2.1186 0.80767,-2.31053 3.59387,-1.58437 l 2.1505,0.56067 -1.35369,2.86797 c -0.74453,1.57785 -1.26763,3.10639 -1.16302,3.39699 0.2843,0.78789 3.01791,-1.87047 3.94618,-3.8376 0.73871,-1.56532 0.98974,-1.66311 2.88545,-1.12662 2.65985,0.75274 2.89028,1.16527 1.86639,3.33499 -0.91428,1.93742 -0.72307,2.75028 0.60992,2.5949 0.73462,-0.0856 1.81404,-1.35762 3.02183,-3.56189 0.17574,-0.32071 1.28333,-0.3245 2.46241,-0.009 1.1791,0.31522 2.64445,0.64711 3.25545,0.74008 0.86648,0.1309 0.94279,0.35079 0.34726,0.99997 -0.41998,0.45771 -0.71191,1.25782 -0.64907,1.77699 0.0917,0.75617 0.33321,0.78168 1.21354,0.12665 0.60435,-0.44967 1.26515,-1.1716 1.4686,-1.60286 0.20565,-0.4357 1.36293,-0.66575 2.60512,-0.51845 1.94942,0.23132 2.26654,0.42251 2.47378,1.49071 0.28257,1.4565 1.49314,1.47151 2.1745,0.0277 0.3321,-0.70375 1.26274,-0.98057 2.95617,-0.88652 2.79574,0.15784 5.64327,-1.22279 5.17865,-2.51048 -0.2015,-0.55848 -0.77725,-0.73683 -1.87775,-0.58177 -2.77176,0.39048 -14.41046,-1.4628 -19.34198,-3.08037 -4.41092,-1.44685 -6.01084,-1.8921 -8.53764,-2.37329 -5.87001,-1.1177 -10.64705,-2.94631 -23.72002,-9.08018 -7.70338,-3.61446 -16.07466,-7.69104 -18.60325,-9.05906 -39.97631,-21.62761 -44.31959,-23.83806 -54.80709,-27.89224 -13.86453,-5.35962 -17.37494,-6.34537 -25.5056,-7.16467 -14.27312,-1.43822 -32.72522,0.0828 -46.49802,3.83364 -9.63685,2.62443 -19.66157,5.00117 -20.1451,4.77557 -0.23203,-0.1083 -2.36324,0.38141 -4.73667,1.08836 -9.65038,2.87451 -12.05559,3.44831 -27.45406,6.55915 -2.76908,0.55942 -6.84489,1.5213 -9.05665,2.13713 -4.78956,1.33361 -9.28956,2.4107 -19.902648,4.76107 -4.349627,0.96329 -10.411419,2.32265 -13.47005,3.02101 -12.465761,2.84635 -28.342792,5.73584 -31.54799,5.74124 -1.089632,0.002 -2.975798,0.25438 -8.359592,1.1187 -4.320312,0.69353 -24.645206,2.41969 -28.3316901,2.40625 C 6.1477312,587.96362 2.5442177,587.80474 0,587.62412 l 0,3.11468 c 5.8902316,0.44609 14.097344,0.41205 18.460553,-0.091 1.913907,-0.22068 4.297323,-0.45496 5.296092,-0.52109 5.13935,-0.34037 10.350113,-0.955 17.56777,-2.07249 4.393124,-0.68024 9.780442,-1.35325 11.972399,-1.496 4.110491,-0.26772 19.00824,-3.03681 28.581718,-5.31249 6.352471,-1.51005 12.269155,-2.84731 19.496028,-4.40487 2.85083,-0.61447 7.2158,-1.706 9.69941,-2.42604 2.4836,-0.72001 6.33993,-1.66956 8.56921,-2.10944 2.22925,-0.43986 6.87426,-1.36251 10.32321,-2.05138 3.44903,-0.68893 7.45341,-1.48481 8.89754,-1.76775 l 2.62531,-0.51449 0.26644,3.15029 c 0.42613,5.03398 9.92154,33.89299 12.46994,37.89982 0.56232,0.88415 2.00079,3.46958 3.19736,5.74388 2.00398,3.8092 6.5319,9.92629 7.77744,10.50758 0.29007,0.13537 1.05513,0.91133 1.69971,1.72421 2.3206,2.92648 6.82381,6.18048 13.17077,9.51685 7.71713,4.0566 11.21406,5.08832 21.31948,6.29136 6.12789,0.72956 8.79501,0.68058 15.23921,-0.27968 7.60371,-1.13304 13.01074,-2.07552 16.6813,-2.90757 6.85462,-1.55375 12.52156,-2.54561 15.88196,-2.7809 6.78947,-0.47585 12.85565,-0.51413 13.01167,-0.0818 0.0827,0.2294 -0.53632,1.18442 -1.37517,2.1213 -4.43129,4.94907 -6.89611,17.6064 -4.40078,22.59821 1.14723,2.29507 0.97537,3.07426 -0.82207,3.72416 -0.69132,0.24984 -1.18714,0.64865 -1.10115,0.8865 0.27025,0.74896 -4.77152,4.75599 -9.241,7.3441 -16.71084,9.67674 -21.44955,11.74967 -36.21522,15.83854 -4.15809,1.15143 -7.93524,2.27337 -8.39369,2.49464 -0.80498,0.38841 -6.12397,1.31884 -16.02843,2.80201 -7.94414,1.1896 -21.50079,0.86122 -28.03242,-0.67807 -1.31271,-0.30939 -4.47179,-1.05614 -7.01978,-1.65957 -3.1633,-0.74913 -7.09484,-2.25975 -12.39669,-4.76239 -6.84382,-3.23056 -8.41154,-4.19628 -13.2175,-8.14486 -2.99893,-2.46391 -6.10728,-5.24074 -6.9074,-6.17129 -3.36102,-3.90826 -7.03981,-10.80616 -10.8359,-20.31861 -1.9149,-4.79854 -1.74357,-13.05388 0.36368,-17.51922 l 1.12893,-2.39042 0.79933,2.05534 c 0.86126,2.21222 3.95631,5.52679 6.09417,6.52881 2.15794,1.01097 7.06515,1.50149 9.57691,0.95643 1.29027,-0.27994 3.59975,-1.54125 5.13193,-2.80333 2.44214,-2.0115 2.95295,-2.74612 4.13559,-5.951 3.06581,-8.30805 3.13461,-8.93985 1.5406,-13.99559 -1.38484,-4.3922 -2.63907,-5.91929 -6.84047,-8.32691 -7.55787,-4.3311 -17.96796,-3.87553 -23.78821,1.04087 -7.611978,6.4298 -14.089954,17.99474 -15.140716,27.0321 -0.305734,2.62931 -0.66852,3.76095 -1.303187,4.05924 -1.240337,0.5827 -11.353906,1.61563 -15.573843,1.59098 -8.668639,-0.0507 -15.288873,-0.40732 -17.264702,-0.93005 -0.629581,-0.16659 -1.568324,-0.32722 -2.084847,-0.35882 -1.480899,-0.0883 -14.288816,-2.28841 -18.163801,-3.11996 -9.590843,-2.05815 -14.440559,-3.32075 -18.394889,-4.79141 -2.384388,-0.88677 -5.210184,-1.90675 -6.279796,-2.26641 C 9.0844401,633.28137 6.0108911,632.12072 3.323632,631.06203 2.1727725,630.60865 1.0385616,630.17906 0,629.79163 l 0,4.48666 c 1.1658208,0.45029 2.3506425,0.88989 3.255442,1.18861 l 2.8538787,0.94192 -1.8537584,4.82439 C 2.6693994,645.36002 1.2523401,649.47935 0,653.59824 l 0,16.75539 c 2.2190975,-11.24099 5.409193,-22.5646 8.2383649,-28.55976 1.8851431,-3.99473 1.2891115,-3.91669 9.2713171,-1.23083 9.990923,3.36177 33.635751,7.43614 47.876968,8.24907 2.700795,0.1542 3.415158,0.37408 3.504205,1.08044 0.225059,1.78692 -2.193908,5.66406 -5.374378,8.6145 -5.704718,5.29208 -10.722935,9.29069 -15.006855,11.96003 -2.298863,1.43247 -5.617986,3.73004 -7.375887,5.10538 -4.173087,3.26488 -8.60282,5.50233 -18.585568,9.38492 -8.823474,3.43174 -14.537475,4.9329 -19.0679505,5.01039 -1.1870118,0.0203 -2.4121144,0.065 -3.4802165,0.10554 l 0,3.29805 c 0.97291864,-0.098 2.1121192,-0.20163 3.3501504,-0.29287 4.4378252,-0.32713 7.7673336,-1.01222 15.2404696,-3.13842 1.176782,-0.33483 5.128631,-1.85937 8.782622,-3.38776 l 6.643476,-2.77959 0.549308,2.96824 c 0.302154,1.63235 1.983964,6.56934 3.736561,10.97062 5.587902,14.03301 6.493601,15.58584 18.70427,32.05702 0.375732,0.50679 1.03154,1.08406 1.455982,1.28227 1.593206,0.74352 1.88414,5.20849 0.637703,9.77541 -0.992827,3.63775 -4.731827,12.1232 -7.172579,16.58785 l 4.976608,0 -0.753878,-0.84166 2.90439,-6.19109 2.904389,-6.18977 0.998857,3.34158 c 0.876409,2.93403 2.166898,5.9367 4.215149,9.88094 l 4.620508,0 c -2.182301,-4.05764 -4.106542,-8.09461 -4.986707,-10.70017 -2.713876,-8.03389 -4.657513,-20.68683 -4.873062,-31.72457 -0.331938,-16.99712 0.04317,-20.73302 4.285872,-42.68331 1.067139,-5.52093 3.742407,-13.82831 6.061336,-18.81866 l 2.006547,-4.31516 2.543235,-0.27308 c 1.398723,-0.1502 3.209462,-0.35788 4.024472,-0.46172 1.470045,-0.18686 1.467093,-0.15717 -0.333368,3.66214 -2.998029,6.3594 -8.268359,20.48611 -9.153874,24.53747 -0.455873,2.0858 -1.089587,4.97196 -1.409262,6.41404 -1.062905,4.79499 -2.449538,21.58833 -2.351292,28.47929 0.05334,3.73783 0.405475,8.81977 0.781653,11.29383 0.376171,2.47407 0.715899,5.23721 0.755139,6.13964 0.03938,0.90237 0.350865,2.6371 0.692002,3.85607 0.341237,1.21897 1.015352,5.22067 1.497659,8.89285 0.482306,3.67221 1.198064,6.8289 1.591101,7.01429 0.418532,0.19724 0.743392,-0.0481 0.784189,-0.59497 0.03811,-0.51259 0.295677,-0.82676 0.572032,-0.69786 0.500542,0.23359 0.666736,-1.61279 0.697054,-7.71083 0.02804,-5.63248 0.583826,-12.76157 1.075887,-13.80431 0.262112,-0.55545 0.39344,-1.24016 0.291699,-1.52237 -0.861758,-2.38834 3.682697,-23.73532 7.572889,-35.57273 2.368334,-7.20661 8.79738,-20.355 10.493678,-21.46104 0.279643,-0.18233 0.990677,0.52497 1.581005,1.57118 l 1.073358,1.90232 -2.214913,3.52362 c -5.076777,8.07566 -10.586476,22.79005 -12.812151,34.21525 -0.601511,3.08792 -1.239425,5.92433 -1.418091,6.30323 -0.346349,0.73428 -1.268166,13.68316 -1.19206,16.75276 0.02469,1.00742 0.03797,5.01118 0.02905,8.89681 -0.0089,3.88564 0.210487,8.90702 0.487426,11.15794 0.203589,1.65492 0.403483,3.82351 0.553099,5.72805 l 3.620385,0 c 0.0027,-0.29538 -0.0013,-0.59488 0.01516,-0.88123 0.05045,-0.86051 0.03341,-2.36685 -0.03791,-3.34819 -0.09211,-1.26826 0.09004,-1.81026 0.630132,-1.87328 1.350934,-0.15748 9.959082,-7.70617 12.52802,-10.98645 2.336029,-2.9829 4.840889,-5.62789 5.179909,-5.46949 0.29957,0.13981 4.96792,6.85208 5.87571,8.44828 1.53309,2.69575 7.14512,9.59381 10.65785,13.09985 0.35435,0.35368 0.70654,0.68649 1.06074,1.01051 l 6.09795,0 c -3.82147,-2.54476 -6.65679,-5.27113 -10.42424,-9.88227 -8.13997,-9.96275 -14.10248,-20.58585 -18.1941,-32.41847 -1.511761,-4.37187 -2.97556,-9.75918 -3.252915,-11.97191 -0.558721,-4.45795 0.07974,-12.4546 1.461028,-18.30151 0.913042,-3.86502 3.048997,-9.04726 3.847684,-9.33611 0.240335,-0.0869 2.105243,1.63923 4.144443,3.83629 9.60891,10.35256 12.86787,12.90649 24.05845,18.85295 5.7474,3.05404 14.91013,6.66633 19.62862,7.73853 l 1.54816,0.35223 -3.03319,2.98803 c -2.83871,2.79603 -3.35814,3.66342 -8.08052,13.49165 l -5.04732,10.50362 -0.46596,5.4576 c -0.56534,6.62646 -0.40205,15.19458 0.35357,18.59967 0.008,0.0342 0.0128,0.0561 0.0202,0.0897 l 3.74288,0 c -0.67541,-4.15678 -1.12413,-8.68241 -0.90163,-10.21338 0.17703,-1.21755 0.35011,-2.77973 0.38515,-3.47087 0.0345,-0.69116 0.39086,-3.70669 0.79303,-6.70163 0.68482,-5.10041 0.98025,-5.96204 4.67606,-13.59586 4.00795,-8.27824 5.63629,-10.679 9.67667,-14.27262 1.68508,-1.49872 2.64409,-1.92047 3.78075,-1.66091 0.8377,0.19225 2.09779,0.3597 2.79959,0.37335 0.70178,0.0136 3.00063,0.36013 5.1092,0.7691 2.10863,0.40899 4.75833,0.78193 5.88706,0.82847 2.45504,0.10175 2.39375,0.32205 -0.6781,2.47749 -3.0809,2.16179 -7.92388,7.01073 -11.69207,11.70674 -6.47973,8.07515 -10.77758,20.46876 -10.72224,30.91721 0.006,1.10642 0.0331,2.012 0.0821,2.84291 l 6.05502,0 c -0.92436,-3.79828 -1.18902,-7.65806 -0.76777,-11.5049 0.36685,-3.35007 0.97885,-5.13921 3.88683,-11.36639 2.94187,-6.29951 3.90816,-7.88922 6.54245,-10.7701 3.51135,-3.83997 7.24772,-6.90943 8.9531,-7.35332 0.63692,-0.16595 1.27423,-0.54626 1.41557,-0.84562 0.91167,-1.93188 8.16469,-3.83737 16.16988,-4.2492 6.73668,-0.34655 22.07281,-3.63563 27.13457,-5.81907 1.60815,-0.69371 4.41856,-1.87318 6.24444,-2.61997 1.82592,-0.74678 4.18849,-1.76254 5.25063,-2.25851 2.67939,-1.251 11.91611,-0.77584 25.35532,1.30471 8.00765,1.23966 7.52661,1.1367 14.62172,3.12128 2.81527,0.78744 6.95617,1.83593 9.20186,2.32973 8.25294,1.81436 11.1554,2.85251 21.75893,7.77944 8.7139,4.04904 11.93004,5.80767 16.49314,9.01949 8.37629,5.89565 19.33853,17.46783 14.33506,15.13276 -2.20419,-1.02868 -7.8964,-0.83719 -10.63385,0.3575 -3.00495,1.3115 -6.13761,5.11689 -7.70674,9.36249 -0.77956,2.10728 -0.88114,4.0508 -0.41798,8.038 0.0142,0.12202 0.0322,0.22255 0.0467,0.34168 l 6.15225,0 c -0.51694,-2.24927 -0.66267,-4.55621 -0.32832,-6.77418 0.94344,-6.25882 10.62732,-8.22292 16.74823,-3.39699 2.56796,2.02462 5.28566,5.84329 4.86295,6.83356 -0.14187,0.33245 -0.0415,1.06531 0.22352,1.62923 0.41957,0.89261 0.68095,0.60362 2.01918,-2.23212 1.51016,-3.20011 1.51356,-3.32995 0.17048,-7.4061 -2.6111,-7.92458 -11.23164,-18.29982 -22.19838,-26.71813 -14.76614,-11.33489 -44.32039,-21.25713 -69.17499,-23.22484 -4.71136,-0.37296 -9.38109,-0.64893 -10.37751,-0.61211 -1.71388,0.0634 -1.57935,-0.077 2.48642,-2.60942 7.61963,-4.74588 24.63571,-16.30223 24.93354,-16.93349 0.20687,-0.4383 2.57538,0.45433 8.33561,3.14239 11.16605,5.21062 21.31769,8.29303 30.57943,9.28465 4.90153,0.52479 5.96458,0.90827 9.32182,3.36532 7.81312,5.71815 11.03978,8.49365 15.57132,13.38876 10.9845,11.8656 17.06487,21.98544 20.1249,33.49891 0.72807,2.73904 0.7818,11.92302 0.10355,17.63795 -0.0472,0.3973 -0.10703,0.75438 -0.16163,1.12661 l 3.94239,0 c 0.2129,-1.28757 0.45123,-2.77688 0.59097,-3.58299 1.11184,-6.41526 0.87692,-10.7102 -1.01148,-18.51656 -0.51,-2.10826 -0.82247,-4.05461 -0.69453,-4.32571 0.1274,-0.27073 -0.35108,-1.25127 -1.06452,-2.17803 -1.41423,-1.83689 -4.49199,-8.1881 -4.04594,-8.34933 0.57015,-0.20615 16.16089,11.854 26.01323,20.12203 3.29742,2.7672 8.10029,6.71173 10.67174,8.76621 2.57142,2.05444 5.39941,4.34884 6.28484,5.09878 0.94748,0.80247 2.26229,1.84727 3.69742,2.9656 l 10.78665,0 c -5.29375,-3.99098 -10.40224,-7.75544 -13.47637,-9.87698 -2.13684,-1.4747 -5.36304,-3.84698 -7.16878,-5.27292 -7.27553,-5.74536 -11.05909,-8.69172 -16.47927,-12.82941 -7.76914,-5.93087 -9.38006,-7.19099 -13.40186,-10.4825 -1.91581,-1.56792 -4.74674,-3.85619 -6.29116,-5.08558 -10.0526,-8.00239 -24.8114,-21.74622 -24.91335,-23.19978 -0.0411,-0.5862 -0.59306,-1.3172 -1.22742,-1.62396 -1.14181,-0.55312 -1.13987,-0.56207 0.27655,-0.86145 0.78666,-0.1663 2.18581,-0.51618 3.10896,-0.77834 2.12678,-0.60404 2.34626,-0.48842 4.92735,2.59358 1.17499,1.40303 2.85851,3.16977 3.74036,3.92732 0.88184,0.75752 4.17142,3.91504 7.31148,7.0156 3.14006,3.1006 6.86204,6.57008 8.2712,7.71083 1.40919,1.14082 4.70036,3.99199 7.31275,6.33489 2.61236,2.34294 7.38465,6.34903 10.60607,8.90208 3.2214,2.55305 6.06808,4.80896 6.32526,5.01436 0.25715,0.20545 1.05134,0.97822 1.76537,1.7163 1.17302,1.2125 3.10309,2.72221 14.10649,11.03658 1.82715,1.38066 4.15838,3.19219 5.18118,4.02626 1.02279,0.83404 3.13261,2.50365 4.68743,3.71096 1.54952,1.20318 6.19409,4.81071 10.32952,8.02216 l 5.49183,0 c -3.76146,-2.99306 -11.99309,-9.25709 -19.64378,-14.92959 -8.39408,-6.22368 -17.89655,-13.71392 -21.11618,-16.6459 -3.21968,-2.93196 -9.21093,-8.03852 -13.31473,-11.34792 -9.33971,-7.53175 -14.44989,-11.91366 -18.10445,-15.52456 -1.56974,-1.55094 -5.08931,-5.02277 -7.82039,-7.71479 l -4.96524,-4.8943 7.66633,-2.87589 c 4.21659,-1.58127 7.77715,-2.95292 7.91256,-3.05004 0.13552,-0.0967 0.55817,0.54359 0.93825,1.42344 0.58035,1.34352 3.59071,5.00111 12.78562,15.53379 0.68953,0.78987 2.06737,2.1674 3.06224,3.06059 0.99488,0.89321 2.55582,2.49916 3.46759,3.56849 2.48609,2.91551 7.41762,7.91366 13.28317,13.46262 3.43964,3.25403 12.14771,10.31201 18.85959,15.28579 2.09879,1.55529 5.80825,4.44058 8.24214,6.4114 4.89337,3.96229 12.80165,9.34269 18.27494,12.43363 1.95708,1.10524 4.03159,2.36623 4.6104,2.80202 0.57886,0.43577 2.56895,1.66691 4.42225,2.73606 0.13769,0.0794 0.28856,0.17975 0.43061,0.26516 l 5.50823,0 c -5.82419,-3.79179 -12.91443,-8.34982 -17.30511,-11.09067 -7.03963,-4.39445 -13.19159,-8.63296 -16.03349,-11.04581 -1.3904,-1.18055 -4.79122,-3.79625 -7.55773,-5.81248 -9.76601,-7.11735 -22.44452,-18.39566 -29.4745,-26.21947 -1.27691,-1.42107 -4.75146,-5.09628 -7.72189,-8.16728 -2.97047,-3.07101 -7.19748,-7.83282 -9.39255,-10.58145 l -3.99038,-4.9972 1.90175,-0.68731 1.90174,-0.68863 3.56608,4.57637 c 5.75723,7.3873 15.31696,17.98684 21.76904,24.1351 9.87735,9.41219 43.83873,34.6609 57.37811,42.65825 3.62035,2.13848 8.83577,5.40298 12.73007,7.92058 l 11.03416,0 c -0.94788,-0.63707 -4.81347,-3.01881 -9.33825,-5.74651 -10.29701,-6.20741 -19.80197,-12.50358 -25.99555,-17.22108 -2.34426,-1.78551 -5.45504,-4.09447 -6.91371,-5.13044 -1.45864,-1.03592 -4.56113,-3.36458 -6.8935,-5.1753 -2.33236,-1.81072 -5.67306,-4.24819 -7.42388,-5.41538 -1.75086,-1.16718 -3.79568,-2.66462 -4.54474,-3.3284 -0.74905,-0.6638 -3.79422,-3.11272 -6.76723,-5.44177 -2.97302,-2.32903 -5.79589,-4.63638 -6.27222,-5.1278 -0.47624,-0.49153 -2.97662,-2.85796 -5.55748,-5.25841 -5.18538,-4.82301 -10.60367,-11.21179 -8.8988,-10.49306 3.24917,1.36957 15.19385,-0.11171 19.81046,-2.45639 3.64072,-1.84909 9.18791,-6.26141 12.28052,-9.76881 1.26682,-1.43665 3.45555,-3.3089 4.86423,-4.15949 3.61934,-2.18691 4.9443,-3.86143 8.80029,-11.11838 5.97339,-11.24193 6.67357,-16.53372 3.91336,-29.59006 -1.77634,-8.40248 -1.75833,-12.43459 0.0732,-16.18022 1.16495,-2.38231 5.90218,-8.42156 6.88466,-8.77676 1.22518,-0.44296 3.16096,-5.94267 3.59766,-10.21999 0.25298,-2.4795 0.57173,-5.03872 0.70715,-5.68714 0.49852,-2.38666 -1.03733,-8.89351 -2.7718,-11.74501 -2.29352,-3.77065 -4.54797,-5.64908 -8.71821,-7.2623 -5.77403,-2.2337 -12.85984,-0.60205 -12.67956,2.91943 0.0437,0.85279 0.60923,1.56493 1.61762,2.03556 1.89784,0.8857 2.15138,3.36427 0.76776,7.49712 -1.36178,4.06762 -4.69795,7.2675 -10.26512,9.84532 -7.3841,3.41916 -16.08409,4.55147 -28.4466,3.70305 -9.84787,-0.6759 -11.10712,-0.92668 -17.22935,-3.44448 -31.30011,-12.87257 -43.45357,-18.6728 -52.31184,-24.96225 -2.34352,-1.66396 -7.32859,-4.91183 -11.07836,-7.21877 -3.74972,-2.30691 -8.15147,-5.05202 -9.78147,-6.10006 -12.01343,-7.724 -17.16793,-10.68503 -26.59159,-15.27523 -14.06289,-6.85003 -22.22783,-9.5728 -36.15839,-12.05634 -1.14318,-0.20381 -3.27223,-0.60508 -4.73036,-0.89179 -1.45809,-0.28701 -2.97779,-0.44204 -3.37794,-0.34432 -0.40019,0.0978 -1.92125,-0.0331 -3.37919,-0.29154 -2.82044,-0.49993 -14.96332,-0.38093 -16.84041,0.1649 -0.61564,0.17903 -2.29809,0.40783 -3.73908,0.50922 -3.76038,0.26415 -11.98757,2.47669 -19.22201,5.17001 -8.73194,3.25076 -12.90056,2.98125 -22.49134,-1.45246 -5.26353,-2.43334 -9.80444,-5.3753 -13.87289,-8.98783 -1.58242,-1.4051 -8.59952,-9.85233 -8.77125,-10.55903 -0.0602,-0.24766 -0.57827,-0.99349 -1.15039,-1.65693 -3.27312,-3.79514 -5.95638,-14.83293 -5.35165,-22.01117 0.46595,-5.53058 0.0973,-6.58476 -2.55839,-7.3177 -2.80165,-0.77327 -4.09991,0.20941 -6.22045,4.70565 -5.964465,12.64619 -6.398561,30.74851 -1.08851,45.43125 l 2.58742,7.15545 -1.9775,-0.84035 c -1.08792,-0.46215 -2.71503,-1.12109 -3.61534,-1.46433 -4.846424,-1.84746 -20.794701,-11.07917 -25.789716,-14.92828 -1.03866,-0.8004 -3.673218,-2.74321 -5.854237,-4.3178 -5.236122,-3.7803 -17.443146,-15.352 -18.091824,-17.14985 -0.148765,-0.41234 -0.69879,-0.94876 -1.221107,-1.19257 -0.522407,-0.24371 -0.849376,-0.65452 -0.72736,-0.9129 0.121911,-0.25836 -0.333814,-0.92117 -1.012748,-1.47357 -0.678943,-0.55232 -1.909843,-2.0993 -2.735178,-3.43656 -2.482579,-4.02249 -2.928962,-4.67967 -3.955022,-5.83358 -1.123735,-1.26392 -5.469236,-8.23102 -6.575285,-10.54188 -1.790617,-3.74094 -7.335928,-19.61564 -8.094408,-23.17207 -2.556919,-11.98888 -1.883364,-22.53912 1.818401,-28.47269 2.361303,-3.78491 2.503324,-5.19037 0.741251,-7.33354 -1.30236,-1.58396 -2.39649,-2.39152 -3.876729,-2.28488 z m 83.890142,71.032 -0.34474,3.18327 c -0.46568,4.29555 0.20437,8.12495 2.52808,14.4428 2.15654,5.86329 3.31535,7.85691 8.573,14.74491 5.44282,7.13044 11.62973,11.95312 21.19825,16.52453 4.17871,1.99649 7.58773,3.64916 7.57668,3.67403 -0.22658,0.48018 -3.86932,0.99644 -5.17486,0.73348 -4.74618,-0.9558 -16.2016,-7.91322 -20.01631,-12.1566 -0.46443,-0.51662 -1.70793,-1.87218 -2.76295,-3.0131 -2.8426,-3.07407 -6.97505,-9.28751 -8.51239,-12.79773 -1.41211,-3.22427 -2.7989,-4.03017 -2.67204,-1.55272 0.20413,3.9869 2.24903,8.04202 7.0804,14.04572 4.90017,6.08919 7.72504,8.61576 15.8908,14.21062 2.14067,1.46667 3.97751,2.73579 4.08129,2.81916 0.10397,0.0834 -0.3638,0.39955 -1.03926,0.70316 -0.67546,0.30358 -1.54658,0.87475 -1.93584,1.26907 -0.73322,0.74252 -7.30822,1.02264 -10.99248,0.46833 -6.85857,-1.03181 -9.48823,-1.89561 -10.19567,-3.35081 -8.31684,-17.10836 -10.44451,-28.4354 -7.5451,-40.15174 0.66308,-2.67777 1.1776,-5.38373 1.14534,-6.01299 -0.0322,-0.62923 0.65669,-2.63677 1.52922,-4.46292 l 1.58858,-3.32047 z m 97.47511,69.00304 c 6.31018,0.0838 14.55961,0.80236 13.69609,1.41816 -0.34984,0.24955 -1.48541,0.92519 -2.5243,1.50126 -5.80091,3.21597 -15.10487,17.51583 -16.84545,25.89231 -1.12462,5.412 -1.23401,11.79913 -0.26645,15.52984 1.5869,6.11892 6.7996,14.544 13.28947,21.47952 1.834,1.95996 4.44763,4.27356 5.80878,5.14098 l 2.47505,1.57647 -2.29952,0.0976 c -9.77258,0.41435 -22.58053,-1.77128 -29.6172,-5.05525 -5.9877,-2.79443 -14.08202,-8.88613 -18.02742,-13.56684 -8.33133,-9.88405 -14.77641,-24.23595 -15.68244,-34.92235 -0.26375,-3.11039 -0.39886,-5.82583 -0.30054,-6.0341 0.0983,-0.20829 0.0847,-0.6388 -0.0303,-0.95776 -0.44762,-1.24049 1.00008,-2.96414 3.1279,-3.72415 2.20948,-0.78918 2.97385,-1.0107 11.76404,-3.41546 8.45674,-2.31355 9.69975,-2.57969 16.00572,-3.42206 2.83437,-0.37866 5.97603,-0.82678 6.9819,-0.996 1.0059,-0.1692 2.80628,-0.29948 4.00048,-0.29024 1.19412,0.009 2.62929,-0.0341 3.18977,-0.0963 1.26313,-0.14033 3.15103,-0.18359 5.25443,-0.15567 z m 21.59224,2.75981 c 0.18353,-0.006 0.33653,0.005 0.44702,0.0383 1.14322,0.34225 15.4634,5.74068 20.86237,7.86518 7.20827,2.83644 21.54662,10.68505 23.05958,12.62229 2.16749,2.77533 3.17037,9.0527 2.51546,15.74486 -0.31005,3.16803 -0.97645,5.27636 -3.35015,10.60784 -3.04094,6.8301 -5.33984,10.16507 -8.23458,11.94552 -0.77585,0.47716 -1.56885,1.20388 -1.76284,1.61473 -0.19388,0.41088 -1.89294,0.78725 -3.77571,0.83771 -3.80641,0.10176 -7.64368,1.01944 -20.65525,4.94046 l -8.84829,2.66615 -4.56369,-2.60678 c -4.94042,-2.82228 -7.85748,-5.76505 -12.77678,-12.8914 -2.80984,-4.0705 -6.28989,-13.169 -6.58665,-17.21844 -0.10205,-1.39443 -0.0219,-4.60121 0.17931,-7.12641 0.31666,-3.97515 0.70705,-5.29442 2.90313,-9.8361 2.94188,-6.08413 7.63005,-12.22623 10.72351,-14.04704 4.51526,-2.65751 5.32423,-3.18711 5.53097,-3.62521 0.26195,-0.55504 3.04787,-1.48516 4.33259,-1.53161 z m -76.60265,7.23459 c 0.52054,-0.006 0.86024,0.0496 0.85111,0.19261 -0.081,1.24327 0.25611,9.50479 0.41546,10.18172 4.37072,18.56652 9.56175,28.58228 20.72471,39.98551 6.44146,6.58006 19.77428,14.24698 26.40091,15.18289 12.54867,1.7721 19.62689,1.51769 30.21449,-1.08836 1.60492,-0.39503 5.9217,-1.48921 9.59332,-2.43132 12.53768,-3.2171 16.61898,-3.77948 24.21504,-3.33893 7.2243,0.41899 9.86317,1.16176 19.00607,5.35866 l 8.20175,3.76505 3.12285,3.61465 c 6.44666,7.46112 7.98722,12.22848 6.63968,20.54683 -0.99537,6.14378 -3.77948,9.8988 -8.64119,11.65662 -4.54002,1.6415 -8.81753,1.03057 -13.12657,-1.87462 -6.43288,-4.33699 -10.41582,-9.98089 -10.21588,-14.47314 0.13962,-3.13526 1.16717,-8.3502 2.05454,-10.42974 0.92784,-2.17413 4.40094,-4.08907 7.19152,-3.96557 4.15278,0.18427 10.03508,6.12139 11.04173,11.14476 0.29041,1.4494 0.0197,2.78811 -1.01022,4.99324 l -1.40673,3.01309 -2.07349,-0.76647 c -1.37838,-0.50978 -2.49102,-1.4066 -3.32237,-2.67801 -1.0303,-1.57569 -1.41172,-1.83543 -2.17071,-1.47884 -2.3688,1.11288 3.39444,7.27707 7.0564,7.54725 4.61299,0.34036 7.90566,-7.36566 5.54865,-12.98507 -3.18018,-7.58203 -7.82341,-10.97254 -17.71299,-12.93493 -6.28337,-1.24684 -11.9631,-1.80706 -13.98905,-1.37859 -0.59003,0.12479 -2.98634,0.29457 -5.3264,0.37598 -3.69726,0.12866 -6.69628,0.4186 -17.76477,1.72158 -1.21015,0.14249 -5.41123,0.93981 -9.33445,1.7717 -13.89074,2.94534 -21.37597,3.41972 -30.95069,1.96169 -10.22813,-1.55752 -19.08345,-5.90985 -26.04228,-12.80038 -5.58417,-5.52913 -11.03639,-12.9128 -14.1267,-19.12999 -1.16597,-2.3458 -6.22365,-16.25402 -7.43524,-20.44656 -0.70342,-2.4341 -2.88858,-19.11841 -2.58743,-19.75662 0.21556,-0.45673 3.3973,-1.03688 4.95893,-1.05669 z m 126.56446,15.46123 2.61901,1.67409 c 4.94829,3.16261 5.5072,9.44763 1.82092,20.49011 -2.90486,8.70167 -7.50122,16.32013 -10.6389,17.63399 -1.18744,0.49727 -5.6431,-0.31409 -5.91865,-1.07781 -0.0702,-0.19467 0.80909,-1.18818 1.95353,-2.20705 2.97674,-2.65002 4.52675,-4.98198 7.32411,-11.02338 3.39863,-7.34002 4.2511,-13.05715 3.25544,-21.83175 l -0.41546,-3.6582 z m 135.03518,18.25404 c -2.00613,0.0378 -4.16366,0.88487 -5.26072,2.26377 -4.19022,5.26665 -5.96789,9.28358 -6.41871,14.50217 -0.4442,5.14127 0.94382,12.23909 2.53945,12.98375 0.62669,0.29246 2.13817,4.82767 2.42958,7.29132 0.13388,1.13194 0.27805,1.23644 1.07463,0.77306 2.20735,-1.28425 2.24068,-3.20293 0.18689,-10.54188 -2.5676,-9.17478 -2.63761,-11.94835 -0.43819,-17.25405 1.89739,-4.57723 4.16075,-7.08784 6.5071,-7.21481 1.23205,-0.0666 1.39417,0.0942 1.19081,1.18071 -0.282,1.50651 1.82089,2.41983 2.72128,1.18202 0.78216,-1.07532 -0.45346,-3.96618 -2.00403,-4.68983 -0.7358,-0.3434 -1.6162,-0.49345 -2.52809,-0.47623 z M 116.9926,611.66424 c 2.60912,-0.0608 5.34607,0.43408 8.16386,1.50259 2.5895,0.98194 3.58245,1.64124 4.41215,2.92735 1.8537,2.87358 3.31865,8.42713 2.78696,10.56693 -1.49779,6.02789 -5.76197,11.62506 -9.34456,12.26742 -2.22968,0.39979 -5.38121,-0.20153 -7.4807,-1.4274 -3.99287,-2.33129 -5.05488,-7.34061 -2.39802,-11.3123 1.26227,-1.88695 1.33278,-2.2135 0.4887,-2.27301 -1.16499,-0.0824 -0.75075,-1.29318 0.84985,-2.48409 0.59076,-0.43858 1.00843,-0.97759 0.9294,-1.19653 -0.23288,-0.64534 -3.48454,0.6158 -4.07498,1.58042 -0.29826,0.48723 -1.15996,1.45626 -1.91437,2.15429 -1.59892,1.47948 -3.36876,4.34378 -6.21793,10.063 -1.75606,3.52523 -2.09143,4.82899 -2.3778,9.25432 -0.40518,6.25389 0.53111,10.54631 3.92724,18.01788 4.15624,9.14384 11.67138,17.56039 22.64287,25.3567 3.07021,2.18164 13.86642,6.68013 19.48214,8.11846 2.63329,0.67446 5.17417,1.32798 5.64714,1.45115 4.49908,1.17237 6.01687,1.45766 9.7575,1.83503 2.36601,0.23903 5.45832,0.43786 6.87203,0.44326 1.41375,0.006 3.72028,0.0295 5.12562,0.0528 4.32362,0.0721 16.86112,-1.28866 19.27757,-2.09227 0.59208,-0.1969 2.30572,-0.51223 3.80854,-0.70184 7.4427,-0.93919 30.7286,-8.59367 36.51702,-12.00356 1.55058,-0.91339 3.2115,-1.76604 3.69109,-1.89572 2.01678,-0.5458 15.01731,-8.73414 18.33807,-11.54975 l 3.60271,-3.05399 1.12513,2.08172 c 0.61911,1.14546 1.472,2.42327 1.89543,2.83896 0.9443,0.92679 0.44822,2.1424 -1.03169,2.52762 -0.60556,0.15756 -1.20451,0.50592 -1.33097,0.77438 -0.65486,1.38775 -19.44928,13.21368 -24.86536,15.64594 -1.95245,0.87682 -4.87342,2.26252 -6.49068,3.07905 -6.92794,3.49803 -26.89985,8.95118 -38.35184,10.47196 -6.97348,0.92602 -18.1217,1.10268 -25.05604,0.39709 -17.52121,-1.78281 -19.34241,-2.30105 -34.32862,-9.7741 -10.80306,-5.38707 -12.03689,-6.12892 -15.55238,-9.3559 -6.34863,-5.82764 -8.52328,-8.32294 -12.75279,-14.62749 -3.406783,-5.07815 -4.449408,-7.30863 -6.572764,-14.06947 -1.387948,-4.41922 -2.54863,-8.86675 -2.57986,-9.88358 -0.123955,-4.05461 1.089453,-11.68389 2.400543,-15.0945 0.762412,-1.98334 1.426927,-3.92104 1.478713,-4.30461 0.05139,-0.38361 1.308709,-2.74974 2.793268,-5.25841 4.20762,-7.11001 10.0401,-10.89426 16.70781,-11.04976 z m -3.33878,9.58281 c 0.1,0.0107 0.14412,0.0371 0.1086,0.0752 -0.0712,0.076 -0.59891,0.64251 -1.17312,1.25853 -0.97181,1.04216 -1.01007,1.03677 -0.55183,-0.0607 0.2707,-0.64846 0.79846,-1.21359 1.17312,-1.25722 0.1873,-0.0212 0.34323,-0.0265 0.44323,-0.0158 z m 154.0804,16.41371 c 0.60473,0.0198 0.72074,0.79047 -0.0354,2.55533 -2.27347,5.3064 -2.81622,14.04964 -1.14787,18.48356 2.01017,5.34233 5.7372,9.1912 11.90295,12.29116 5.67603,2.85363 13.47294,4.00418 16.73939,2.46958 0.64867,-0.3048 1.8262,-0.12763 2.96752,0.44721 4.80882,2.42251 16.68102,3.33791 24.62291,1.89836 6.76389,-1.22598 21.04315,-6.99037 28.63855,-11.56163 7.6758,-4.6197 18.06199,-8.82105 23.7819,-9.61974 3.73401,-0.52127 8.48849,-0.26772 13.88172,0.74008 4.1198,0.76983 16.49229,6.81431 17.95418,8.77148 0.47396,0.63454 0.76033,1.31286 0.63644,1.50787 -2.2383,3.52076 -6.59642,5.53456 -8.28256,3.82705 -2.18345,-2.21107 -8.64723,-3.50129 -16.54871,-3.30332 -2.42797,0.0604 -4.76471,-0.0524 -5.19254,-0.25197 -0.42783,-0.19957 -0.87488,-0.15817 -0.99381,0.0937 -0.11883,0.25178 -2.40343,0.9949 -5.07637,1.65034 -4.74461,1.16343 -23.49631,7.93158 -30.60216,11.04581 -2.91945,1.27946 -10.0102,3.62405 -17.3291,5.72805 -5.53249,1.59033 -11.09319,1.84555 -18.56411,0.85221 -8.40836,-1.11797 -13.38213,-2.4359 -23.23259,-6.15679 -11.48764,-4.33929 -13.88281,-5.81765 -17.77991,-10.96535 -6.17665,-8.15871 -6.97921,-15.90281 -2.49526,-24.07836 2.06258,-3.76066 5.0003,-6.46244 6.15478,-6.4246 z m -178.943241,11.68828 0.543002,3.68721 c 0.298602,2.02781 1.133364,5.32295 1.855019,7.32298 1.24502,3.45049 1.243155,3.7111 -0.04166,5.09482 -4.002057,4.31017 -10.664709,19.73495 -13.809738,31.97127 -1.938223,7.54101 -3.923381,17.06385 -4.273246,20.49933 -0.385141,3.7826 -0.546377,3.70923 -1.091037,-0.49999 -1.743065,-13.47133 1.097625,-36.08046 6.294949,-50.10523 3.713102,-10.0197 4.879514,-12.66752 5.621886,-12.75421 0.423697,-0.0494 1.03179,-0.64116 1.349908,-1.31526 0.318118,-0.67412 1.246993,-1.82749 2.064646,-2.56324 l 1.486287,-1.33768 z m 624.908491,3.73997 c -13.95073,0.0606 -28.37296,0.95474 -39.25219,2.53819 -15.9741,2.32508 -51.88624,10.99084 -63.05809,15.21586 -1.88344,0.71228 -6.0591,2.52454 -9.2789,4.02758 -3.22004,1.50306 -6.03982,2.79145 -6.26589,2.8627 -1.48081,0.46688 -13.89413,6.49036 -19.2498,9.34007 -3.5405,1.88383 -6.63169,3.47966 -6.86825,3.54606 -0.23681,0.0663 -3.88613,1.97879 -8.11083,4.25052 -4.22486,2.27175 -7.97972,4.28157 -8.34317,4.46555 -2.54749,1.2893 -7.32897,3.97947 -12.80204,7.20426 -3.51653,2.07181 -7.51685,4.40101 -8.88869,5.17529 -1.37205,0.77419 -4.17023,2.5053 -6.21793,3.84816 -2.04804,1.34272 -6.19401,4.05332 -9.21322,6.02223 -3.01902,1.96894 -5.99117,3.90804 -6.6056,4.30989 -0.61447,0.40187 -4.19142,2.76816 -7.94793,5.25841 -3.75672,2.49018 -10.31993,6.66009 -14.58761,9.26486 -4.26692,2.60559 -10.69095,6.69644 -14.27444,9.09074 -6.94494,4.64015 -10.98183,7.10471 -12.9902,7.90475 l 11.14149,0 c 0.0292,-0.0157 0.0579,-0.0318 0.0871,-0.0475 5.13146,-2.74901 18.25045,-11.29112 24.30722,-15.82666 4.34536,-3.25392 8.69621,-6.22414 14.35399,-9.80048 1.90602,-1.20499 4.30243,-2.73854 5.32641,-3.40754 1.02374,-0.66907 3.07882,-1.90302 4.5662,-2.74133 1.48756,-0.83843 3.77455,-2.30636 5.08142,-3.26243 1.30681,-0.95612 6.14183,-4.05117 10.74372,-6.87972 10.35589,-6.36372 8.94792,-5.53335 16.77095,-9.90074 3.62256,-2.02235 10.39417,-5.80572 15.04853,-8.40738 17.06796,-9.54027 26.61905,-13.96831 44.18714,-20.48613 13.73225,-5.09462 24.53478,-8.33984 35.0787,-10.53925 3.29537,-0.6873 8.25778,-1.75444 11.02783,-2.37195 8.27031,-1.8436 31.49446,-5.27383 38.06145,-5.62119 9.39072,-0.49664 20.22225,-0.63341 23.64039,-0.29946 2.20007,0.21493 6.38169,0.563 9.29157,0.77438 2.9102,0.21141 7.9713,0.84381 11.24755,1.40497 3.27598,0.56131 8.57203,1.31101 11.76911,1.66485 8.31521,0.92033 22.26446,4.10829 29.67651,6.78342 8.261,2.98136 22.84056,9.7549 32.17559,14.94807 12.08738,6.72421 17.96905,11.05978 36.77974,27.10862 4.15493,3.545 10.95914,10.27442 11.58469,11.45873 0.20717,0.39203 2.02489,2.43861 4.03966,4.54734 2.01449,2.10873 4.32559,4.92655 5.13563,6.26234 0.81031,1.33566 2.51941,3.66183 3.79848,5.16869 3.41284,4.02056 8.45086,11.43352 13.43219,19.47034 l 4.78462,0 c -4.69519,-7.64237 -9.51604,-14.82846 -15.1735,-22.64174 -4.61838,-6.37834 -20.30384,-24.51502 -25.26571,-29.2141 -11.0218,-10.4382 -17.60435,-15.78188 -24.20489,-19.64975 -25.88427,-15.16753 -32.69936,-18.55107 -44.40681,-22.04283 -22.85592,-6.81669 -35.89624,-9.41702 -51.77774,-10.32815 -5.76929,-0.33092 -12.01325,-0.47605 -18.35448,-0.44854 z M 64.116298,663.62957 c 0.03948,0.005 0.07864,0.0161 0.114912,0.033 0.290039,0.13541 0.332507,0.66097 0.09471,1.16883 -1.049514,2.24148 -5.497581,26.8446 -5.92243,32.75884 -0.647112,9.00936 -0.881507,20.34333 -0.471016,22.71825 0.479793,2.7717 0.528945,4.95398 0.107336,4.7571 -0.196473,-0.0917 -1.377242,-1.75405 -2.624052,-3.69513 -1.246827,-1.94109 -3.249279,-4.88466 -4.448768,-6.54067 -3.930096,-5.42548 -8.95495,-15.64956 -10.992484,-22.36604 -1.099756,-3.62521 -2.212438,-7.21278 -2.473783,-7.97204 -0.597502,-1.73575 -0.418493,-2.10142 1.521649,-3.09357 8.063545,-4.12339 23.176876,-14.79731 24.289537,-17.15511 0.188182,-0.39791 0.52799,-0.64788 0.80439,-0.61344 z m 647.475552,3.48142 c -0.91845,0.0403 -3.5807,0.12876 -5.91481,0.19788 -12.03431,0.35651 -26.18457,1.45722 -31.4103,2.44188 -24.45244,4.60739 -32.33932,6.41698 -42.90545,9.84532 -2.95767,0.9597 -6.92355,2.17475 -8.81293,2.70044 -1.88907,0.52571 -4.45021,1.3495 -5.69134,1.82976 -5.43488,2.10275 -9.58962,3.86046 -10.80433,4.57109 -0.72077,0.4217 -4.16464,1.8902 -7.65244,3.26375 -6.3525,2.50184 -10.41556,4.52142 -29.10956,14.47315 -5.51586,2.93632 -10.93641,5.7831 -12.0469,6.32564 -1.11061,0.54237 -3.5819,1.99384 -5.49183,3.22418 -1.90993,1.23036 -5.58839,3.4199 -8.17396,4.86528 -4.19591,2.34565 -14.3922,8.93952 -19.69049,12.73441 -6.56891,4.70492 -18.80137,12.35522 -24.48401,15.31217 -1.52863,0.79529 -4.12231,2.48889 -5.76458,3.76373 -1.52153,1.18124 -4.06133,2.9308 -6.83922,4.75446 l 6.64222,0 c 1.65368,-1.0726 3.46167,-2.27103 4.88064,-3.26638 4.88498,-3.42585 4.78312,-3.36081 10.70962,-6.99053 5.94739,-3.64303 16.52852,-10.52375 21.51774,-13.99164 4.01449,-2.79041 10.3127,-6.84214 14.83638,-9.54455 1.49554,-0.89335 4.75036,-2.84552 7.2332,-4.33891 2.48291,-1.49342 6.44273,-3.69663 8.8003,-4.89561 2.35764,-1.199 5.66518,-2.98211 7.35063,-3.96294 6.36139,-3.70158 24.067,-12.28889 30.25995,-14.6763 1.7452,-0.67284 4.1854,-1.76436 5.42237,-2.42473 8.80957,-4.70345 12.8762,-6.08155 42.54677,-14.41773 3.18893,-0.89599 11.04869,-2.36169 23.04193,-4.2967 2.10808,-0.34011 5.33394,-1.03615 7.16877,-1.54744 1.83477,-0.51129 5.15791,-1.10674 7.38475,-1.32318 7.14228,-0.69421 30.06401,-1.28985 34.87158,-0.9063 2.55947,0.20341 6.77175,0.48735 9.361,0.62794 13.83802,0.75351 32.2669,4.94086 50.00604,11.36244 6.58403,2.38349 23.66898,10.67088 29.59949,14.35837 14.57694,9.06362 24.07366,16.44007 32.26777,25.06383 2.71867,2.8614 5.18233,5.31564 5.47417,5.45365 0.29177,0.13835 0.97883,0.83499 1.52796,1.54744 0.5492,0.71239 2.1527,2.53329 3.56353,4.04605 2.93993,3.15272 14.80323,18.29496 18.91642,24.12322 l 4.34143,0 c -0.14974,-0.20957 -0.28446,-0.40793 -0.43561,-0.61871 -0.57214,-0.79726 -1.09242,-1.64337 -1.15803,-1.8812 -0.17195,-0.62983 -12.05827,-15.93692 -15.43871,-19.88195 -1.58626,-1.85111 -5.2209,-5.78047 -8.07798,-8.73059 -13.39261,-13.82931 -11.67552,-12.29979 -27.87831,-24.82504 -5.87455,-4.54129 -11.75394,-8.03541 -22.94977,-13.6394 -10.81651,-5.41412 -26.98488,-11.78856 -35.47647,-13.98768 -2.6821,-0.69457 -6.03698,-1.5654 -7.45673,-1.93398 -1.41934,-0.3685 -4.90276,-0.96721 -7.74085,-1.33108 -2.83809,-0.36406 -6.63281,-0.95341 -8.43282,-1.30999 -1.79981,-0.35644 -7.33208,-0.91246 -12.29314,-1.2361 -4.96127,-0.32364 -10.12381,-0.68066 -11.47238,-0.79417 -1.3485,-0.11383 -3.20318,-0.17351 -4.12171,-0.13325 z m -325.74115,2.38779 c 0.52195,0.002 0.89676,0.0175 0.97234,0.0528 0.13419,0.0626 -0.43716,1.26843 -1.27035,2.67933 -1.02581,1.73703 -1.28126,2.53853 -0.79051,2.48145 1.17135,-0.13656 4.89138,-3.24464 4.95893,-4.14234 0.0644,-0.86656 3.00043,-0.83752 4.89959,0.0488 0.91317,0.42626 0.88573,0.71496 -0.21973,2.30863 -0.69487,1.0018 -1.66244,2.28636 -2.14924,2.85478 -0.48678,0.5685 -0.6666,1.13574 -0.4003,1.25986 0.58203,0.27163 4.89511,-3.12076 5.44256,-4.28087 0.21294,-0.45129 0.63815,-0.58406 0.94456,-0.2955 1.08739,1.02405 -0.17468,2.72731 -4.70006,6.3428 -7.33553,5.86071 -15.81525,7.64527 -24.65068,5.18981 l -2.49652,-0.69259 2.16693,-1.15036 c 4.31892,-2.29073 8.91727,-6.45461 11.41172,-10.33608 0.69923,-1.08815 1.30662,-2.02943 1.34865,-2.09096 0.0798,-0.11571 2.96627,-0.23592 4.53211,-0.22954 z m -12.27546,1.93002 c 0.37503,-0.0217 0.43678,0.12885 0.25382,0.46568 -0.93276,1.71699 -5.61743,4.94216 -10.91168,7.51031 -1.69035,0.81995 -1.69321,0.81933 -3.21503,-1.03163 -0.83774,-1.01889 -1.44419,-2.02146 -1.34738,-2.22684 0.14794,-0.31354 4.14689,-1.57965 14.19236,-4.49458 0.46429,-0.13475 0.80288,-0.20995 1.02791,-0.22294 z M 90.759654,693.95049 c 0.07292,0.0142 0.09036,0.28338 0.07703,0.77306 -0.02362,0.87303 -0.07061,2.87709 -0.104807,4.45237 -0.110658,5.07802 2.306631,14.70668 5.667346,22.57578 1.791853,4.1956 3.501006,7.97261 3.798442,8.39419 l -0.001,0 c 0.66408,0.9408 0.10504,2.1415 -1.771683,3.80199 -0.784941,0.69454 -2.605636,2.70646 -4.04594,4.47083 -2.900642,3.55337 -10.050378,9.84627 -10.792965,9.49969 -0.960849,-0.44837 -0.552167,-18.54631 0.574561,-25.44904 0.241429,-1.47863 0.462777,-3.25527 0.493746,-3.94842 0.188146,-4.33599 2.776834,-15.54394 5.160981,-22.34492 0.547752,-1.56253 0.82302,-2.24918 0.944553,-2.22553 z m 424.102776,1.99994 c -0.24613,0.0324 -0.51232,0.25173 -0.66549,0.57781 -0.20505,0.4347 -0.1361,0.9015 0.15406,1.03691 0.2899,0.1349 0.69419,-0.11022 0.90037,-0.54484 0.2052,-0.4347 0.136,-0.90151 -0.15407,-1.0369 -0.0725,-0.0337 -0.15283,-0.0437 -0.23487,-0.033 z m 205.9755,1.64506 c -2.35471,-0.0134 -4.29467,0.0452 -5.28598,0.18733 -0.98944,0.14173 -1.93453,0.19433 -2.09877,0.11741 -1.52742,-0.71279 -37.0689,4.5198 -39.78501,5.85733 -0.23066,0.11358 -2.9966,0.75792 -6.14721,1.43135 -3.15053,0.67339 -7.26843,1.72408 -9.15012,2.33502 -1.8817,0.61097 -6.55304,1.91577 -10.38128,2.89964 -12.51659,3.21686 -40.93793,14.29956 -53.66681,20.92676 -3.93989,2.05114 -8.88299,4.56742 -10.98491,5.59218 -2.10169,1.02482 -5.85764,3.17788 -8.34571,4.7848 -2.48818,1.60702 -8.99532,5.60858 -14.46007,8.89285 -4.25704,2.5591 -8.3728,5.0645 -11.18568,6.79397 l 6.23433,0 c 3.41334,-2.04385 6.84106,-4.10568 9.41528,-5.67264 16.34883,-9.95201 18.67584,-11.28824 25.33764,-14.53646 3.70554,-1.8068 8.85737,-4.40179 11.44834,-5.76763 8.80843,-4.64359 48.0088,-18.88385 49.74838,-18.07197 0.26942,0.12577 1.67985,-0.15604 3.13425,-0.62663 1.45382,-0.47061 4.07457,-1.20003 5.82392,-1.62132 1.7491,-0.42134 4.20123,-1.02562 5.44887,-1.34296 1.24763,-0.31732 3.10418,-0.68179 4.12681,-0.80868 1.02243,-0.12694 4.46868,-0.98147 7.65745,-1.89968 3.18869,-0.91825 6.89666,-1.84996 8.23966,-2.06986 1.3432,-0.21989 2.62421,-0.47871 2.84748,-0.57649 0.63829,-0.27976 4.38752,-0.77715 6.18009,-0.81924 0.8951,-0.0209 3.08933,-0.37214 4.87566,-0.78097 1.78653,-0.40885 3.97552,-0.74896 4.86419,-0.75591 0.88853,-0.007 2.1266,-0.14501 2.75161,-0.30607 2.00007,-0.51592 9.48726,-0.67361 13.62286,-0.28627 2.20409,0.20548 4.32452,0.31878 4.71136,0.24934 0.38677,-0.0697 1.79082,0.0214 3.12161,0.20316 1.33045,0.1826 3.03191,0.26292 3.77949,0.17941 2.39798,-0.26807 11.70785,0.82637 15.55362,1.82844 2.04952,0.53406 5.01716,1.30652 6.59423,1.7163 7.16925,1.86289 12.69958,3.90461 16.72166,6.17527 5.34422,3.01706 10.67931,6.94337 13.05213,9.6039 2.59522,2.91008 8.50051,14.36621 9.03776,17.53373 0.73222,4.3181 0.89598,10.97914 0.37376,15.22511 l 0,0.003 c -0.10788,0.87727 -0.36229,2.00386 -0.69331,3.22549 l 3.52059,0 c 0.9404,-3.62082 1.09994,-6.45287 0.97112,-11.65397 -0.0914,-3.69081 -2.07615,-11.46663 -3.57875,-14.01934 -0.6552,-1.11267 -1.30409,-2.39753 -1.4433,-2.85479 -1.30583,-4.31635 -5.19581,-9.52964 -9.97849,-13.37291 -12.69877,-10.20414 -26.73316,-15.13722 -49.25591,-17.31211 -3.75171,-0.36226 -8.82824,-0.58326 -12.75284,-0.60552 z m 2.3488,11.83867 c -1.68844,-0.009 -3.42438,0.002 -5.21279,0.033 -19.85373,0.34556 -32.34519,2.48272 -71.43785,12.22388 -1.00459,0.25033 -25.40144,8.57892 -28.30643,9.66328 -3.26242,1.21772 -6.43556,2.67107 -9.78148,4.48006 -2.00766,1.08544 -4.28768,2.1927 -5.06626,2.45903 -0.77853,0.26634 -4.52418,2.07164 -8.32298,4.01174 -3.79904,1.94008 -7.20495,3.67692 -7.57035,3.86004 -3.09647,1.55288 -11.9577,6.8835 -18.87475,11.24897 l 11.9522,0 c 0.74851,-0.55713 1.28354,-0.9701 1.31455,-1.03559 0.69592,-1.47472 27.43989,-15.14347 36.07631,-18.43871 0.87207,-0.33266 2.72818,-1.22826 4.1255,-1.9907 3.65611,-1.99503 25.37066,-9.70731 34.05716,-12.09592 6.5024,-1.78802 9.00956,-2.31377 16.78988,-3.51967 0.95502,-0.14807 2.56618,-0.49408 3.58124,-0.76911 1.01493,-0.27509 2.95113,-0.54011 4.30232,-0.58969 1.35118,-0.0495 2.5337,-0.25151 2.62655,-0.44854 0.32398,-0.68697 13.60481,-2.37128 20.20065,-2.56191 1.07699,-0.0311 2.45434,-0.18732 3.06096,-0.34696 4.31292,-1.13575 21.03847,-0.92762 30.40262,0.37861 1.32911,0.18457 3.51052,0.4726 4.84789,0.64115 7.46196,0.93431 19.06281,4.14265 22.88275,6.32829 4.03939,2.3111 7.11679,4.85958 8.47958,7.02352 0.70826,1.12503 2.37953,4.98608 3.71508,8.57887 1.88991,5.08426 2.4542,7.67044 2.54196,11.66849 l 0,0.001 c 0.0792,3.61103 -0.0141,4.95665 -0.88901,7.17655 l 5.41983,0 c 1.10248,-4.66001 1.18252,-11.12434 -0.0597,-15.60768 -0.50136,-1.80771 -0.76824,-3.28279 -0.59099,-3.28221 0.34162,0.004 -1.47262,-3.52907 -4.67607,-9.10524 -2.31781,-4.03499 -6.31078,-7.57783 -13.42582,-11.90991 -4.54988,-2.77016 -5.62244,-3.20116 -11.63399,-4.67927 -9.19529,-2.26091 -18.70832,-3.3304 -30.52768,-3.39566 z M 0,726.44548 0,747.36696 c 1.1289948,3.16974 2.5087345,6.57836 4.0408901,10.04717 l 4.6104027,0 C 4.5483345,747.4827 0.07094255,734.66016 1.3827421,735.27237 c 0.310635,0.14498 1.6470655,1.52025 2.9687914,3.05531 3.9493535,4.58691 14.2545785,13.30556 21.9837045,18.59834 0.257728,0.17649 0.484604,0.32653 0.724835,0.48811 l 9.190499,0 C 23.219621,751.38579 8.5672343,739.83961 2.481359,730.38995 1.665176,729.12268 0.66547802,727.52707 0,726.44548 Z"
       id="path4256"
       inkscape:connector-curvature="0" />
  </g>
  <g
     inkscape:groupmode="layer"
     id="layer5"
     inkscape:label="overlay"
     style="display:inline" />
</svg>
