<?xml version="1.0" encoding="UTF-8" standalone="no"?>
<!-- Created with Inkscape (http://www.inkscape.org/) -->

<svg
   xmlns:dc="http://purl.org/dc/elements/1.1/"
   xmlns:cc="http://creativecommons.org/ns#"
   xmlns:rdf="http://www.w3.org/1999/02/22-rdf-syntax-ns#"
   xmlns:svg="http://www.w3.org/2000/svg"
   xmlns="http://www.w3.org/2000/svg"
   xmlns:sodipodi="http://sodipodi.sourceforge.net/DTD/sodipodi-0.dtd"
   xmlns:inkscape="http://www.inkscape.org/namespaces/inkscape"
   width="1344"
   height="756"
   viewBox="0 0 1344 756"
   id="svg2"
   version="1.1"
   inkscape:version="0.91 r13725"
   sodipodi:docname="background.svg"
   inkscape:export-filename="C:\Users\PhroZen\Desktop\valhalla-starter-example.png"
   inkscape:export-xdpi="90"
   inkscape:export-ydpi="90">
  <defs
     id="defs4">
    <filter
       style="color-interpolation-filters:sRGB;"
       inkscape:label="Drop Shadow"
       id="filter4387">
      <feFlood
         flood-opacity="0.509804"
         flood-color="rgb(0,0,0)"
         result="flood"
         id="feFlood4389" />
      <feComposite
         in="flood"
         in2="SourceGraphic"
         operator="in"
         result="composite1"
         id="feComposite4391" />
      <feGaussianBlur
         in="composite1"
         stdDeviation="0"
         result="blur"
         id="feGaussianBlur4393" />
      <feOffset
         dx="1"
         dy="2"
         result="offset"
         id="feOffset4395" />
      <feComposite
         in="SourceGraphic"
         in2="offset"
         operator="over"
         result="composite2"
         id="feComposite4397" />
    </filter>
    <filter
       style="color-interpolation-filters:sRGB;"
       inkscape:label="Drop Shadow"
       id="filter4823">
      <feFlood
         flood-opacity="1"
         flood-color="rgb(255,255,255)"
         result="flood"
         id="feFlood4825" />
      <feComposite
         in="flood"
         in2="SourceGraphic"
         operator="in"
         result="composite1"
         id="feComposite4827" />
      <feGaussianBlur
         in="composite1"
         stdDeviation="1"
         result="blur"
         id="feGaussianBlur4829" />
      <feOffset
         dx="1"
         dy="1"
         result="offset"
         id="feOffset4831" />
      <feComposite
         in="SourceGraphic"
         in2="offset"
         operator="over"
         result="composite2"
         id="feComposite4833" />
    </filter>
    <filter
       style="color-interpolation-filters:sRGB;"
       inkscape:label="Drop Shadow"
       id="filter4835">
      <feFlood
         flood-opacity="1"
         flood-color="rgb(255,255,255)"
         result="flood"
         id="feFlood4837" />
      <feComposite
         in="flood"
         in2="SourceGraphic"
         operator="in"
         result="composite1"
         id="feComposite4839" />
      <feGaussianBlur
         in="composite1"
         stdDeviation="1"
         result="blur"
         id="feGaussianBlur4841" />
      <feOffset
         dx="1"
         dy="1"
         result="offset"
         id="feOffset4843" />
      <feComposite
         in="SourceGraphic"
         in2="offset"
         operator="over"
         result="composite2"
         id="feComposite4845" />
    </filter>
    <filter
       style="color-interpolation-filters:sRGB"
       inkscape:label="Drop Shadow"
       id="filter4387-2">
      <feFlood
         flood-opacity="0.509804"
         flood-color="rgb(0,0,0)"
         result="flood"
         id="feFlood4389-6" />
      <feComposite
         in="flood"
         in2="SourceGraphic"
         operator="in"
         result="composite1"
         id="feComposite4391-5" />
      <feGaussianBlur
         in="composite1"
         stdDeviation="0"
         result="blur"
         id="feGaussianBlur4393-4" />
      <feOffset
         dx="1"
         dy="2"
         result="offset"
         id="feOffset4395-7" />
      <feComposite
         in="SourceGraphic"
         in2="offset"
         operator="over"
         result="composite2"
         id="feComposite4397-3" />
    </filter>
    <filter
       style="color-interpolation-filters:sRGB"
       inkscape:label="Drop Shadow"
       id="filter4387-2-5">
      <feFlood
         flood-opacity="0.509804"
         flood-color="rgb(0,0,0)"
         result="flood"
         id="feFlood4389-6-6" />
      <feComposite
         in="flood"
         in2="SourceGraphic"
         operator="in"
         result="composite1"
         id="feComposite4391-5-0" />
      <feGaussianBlur
         in="composite1"
         stdDeviation="0"
         result="blur"
         id="feGaussianBlur4393-4-5" />
      <feOffset
         dx="1"
         dy="2"
         result="offset"
         id="feOffset4395-7-3" />
      <feComposite
         in="SourceGraphic"
         in2="offset"
         operator="over"
         result="composite2"
         id="feComposite4397-3-4" />
    </filter>
    <filter
       style="color-interpolation-filters:sRGB"
       inkscape:label="Drop Shadow"
       id="filter4387-2-52">
      <feFlood
         flood-opacity="0.509804"
         flood-color="rgb(0,0,0)"
         result="flood"
         id="feFlood4389-6-61" />
      <feComposite
         in="flood"
         in2="SourceGraphic"
         operator="in"
         result="composite1"
         id="feComposite4391-5-2" />
      <feGaussianBlur
         in="composite1"
         stdDeviation="0"
         result="blur"
         id="feGaussianBlur4393-4-6" />
      <feOffset
         dx="1"
         dy="2"
         result="offset"
         id="feOffset4395-7-7" />
      <feComposite
         in="SourceGraphic"
         in2="offset"
         operator="over"
         result="composite2"
         id="feComposite4397-3-8" />
    </filter>
  </defs>
  <sodipodi:namedview
     id="base"
     pagecolor="#ffffff"
     bordercolor="#666666"
     borderopacity="1.0"
     inkscape:pageopacity="0.0"
     inkscape:pageshadow="2"
     inkscape:zoom="0.70710678"
     inkscape:cx="556.61386"
     inkscape:cy="417.43168"
     inkscape:document-units="px"
     inkscape:current-layer="layer4"
     showgrid="false"
     units="px"
     width="1152px"
     borderlayer="true"
     showborder="true"
     inkscape:window-width="1920"
     inkscape:window-height="1017"
     inkscape:window-x="1912"
     inkscape:window-y="-8"
     inkscape:window-maximized="1" />
  <metadata
     id="metadata7">
    <rdf:RDF>
      <cc:Work
         rdf:about="">
        <dc:format>image/svg+xml</dc:format>
        <dc:type
           rdf:resource="http://purl.org/dc/dcmitype/StillImage" />
        <dc:title></dc:title>
      </cc:Work>
    </rdf:RDF>
  </metadata>
  <g
     inkscape:groupmode="layer"
     id="layer4"
     inkscape:label="Decor"
     style="display:inline">
    <path
       style="fill:#000000;fill-opacity:0.4290221"
       d="m 37.89868,269.32763 c -2.836755,0.19563 -6.623691,2.54664 -13.237716,7.46869 -8.108742,6.03437 -10.13136,8.14349 -16.1627004,16.84595 C 5.4157568,298.08998 2.4685187,303.68596 0,309.55086 l 0,19.73329 c 0.56449756,-2.9918 1.1597042,-5.49926 1.8201154,-7.65314 2.7104262,-8.83993 10.2533036,-23.76634 14.6569166,-29.00515 4.17494,-4.96671 16.061011,-14.35733 20.025033,-15.82014 l 2.52407,-0.93169 -2.268086,3.29578 c -2.748354,3.99203 -4.95126,11.33462 -5.983606,19.94598 -0.951915,7.94028 -0.82412,11.4545 0.719012,19.71823 2.250353,12.05096 15.541406,44.92461 20.836273,51.53543 0.92354,1.15308 4.036191,5.21476 6.915309,9.02528 5.827305,7.71266 6.444318,8.46221 12.622228,15.29876 5.570501,6.16444 9.399397,9.82793 16.951353,16.2267 3.350571,2.83896 6.988701,5.969 8.086058,6.95483 4.742264,4.26034 24.029614,16.24679 36.601824,22.74674 10.06245,5.20239 16.04903,7.84389 22.8559,10.08874 5.07214,1.67275 11.82184,3.89986 14.99949,4.94839 3.17771,1.04849 5.83425,2.00071 5.90267,2.1175 0.1497,0.25282 -13.10755,4.76513 -16.88359,5.74644 -2.06798,0.53741 -3.87506,0.16664 -8.27993,-1.69965 -23.22001,-9.83786 -39.00215,-18.60642 -53.137204,-29.52464 -6.285388,-4.85489 -11.848069,-9.33598 -12.362483,-9.95887 -1.270022,-1.53749 -8.287309,-7.36893 -9.5429,-7.92984 -1.070303,-0.47816 -9.265577,-9.299 -13.853205,-14.91101 -5.957542,-7.28781 -15.765504,-20.96093 -16.911828,-23.5768 -0.423699,-0.96648 -1.516028,-2.87548 -2.426193,-4.24066 -4.734857,-7.09904 -12.527537,-24.91956 -14.000018,-32.01671 -0.461472,-2.22431 -0.938559,-4.29482 -1.061578,-4.60205 -0.122894,-0.30717 -0.966469,-3.98567 -1.872817,-8.17452 -1.913892,-8.84538 -2.09401,-12.97176 -0.890294,-20.35066 0.479495,-2.93915 0.625724,-5.45249 0.325625,-5.58646 -0.298731,-0.13404 -0.395991,-1.00311 -0.214574,-1.93116 0.181425,-0.92792 -0.27419,-1.95793 -1.010757,-2.28691 -1.072987,-0.47932 -1.494678,-0.0747 -2.123154,2.0328 -4.219746,14.1497 -4.01537,22.23296 0.995699,39.21436 2.165616,7.33906 1.86822,6.54425 6.408989,17.06993 5.025556,11.64936 6.098302,13.97055 7.479978,16.18341 0.655301,1.04964 1.769843,3.02122 2.477014,4.38183 1.086081,2.08894 7.187612,11.31163 11.314077,17.10193 2.21055,3.10202 18.069635,21.90407 22.430523,26.59213 6.52008,7.00912 15.596952,14.5097 26.93281,22.25736 6.61186,4.51892 28.15282,16.92535 36.91992,21.26354 2.84206,1.40641 4.43942,2.63893 4.38372,3.37859 -0.105,1.35191 -10.84039,4.82203 -22.48888,7.26917 -6.90587,1.45073 -24.128848,5.63079 -27.888982,6.7685 -0.673346,0.20372 -3.249119,0.85262 -5.723858,1.44179 -2.474744,0.58912 -10.394547,2.71098 -17.598841,4.71687 -9.049494,2.51963 -13.710316,3.3837 -15.074771,2.78946 C 45.82404,485.8189 28.194578,462.22353 19.187441,443.15524 13.645468,431.42273 13.093952,430.07581 10.830345,422.74623 9.7748532,419.32848 8.0016511,413.94808 6.8889579,410.79032 5.7763375,407.6326 4.9883397,404.80066 5.1384849,404.49613 5.2886696,404.19158 4.9994426,402.70188 4.4947627,401.1853 3.7640415,398.98965 1.5375979,389.29631 0,382.0035 l 0,26.05005 c 0.58392076,1.76866 1.2818039,4.16287 1.7899997,6.19442 1.573176,6.28874 10.1132683,29.76669 10.9658653,30.14766 0.338496,0.15153 1.049233,1.27121 1.579191,2.4883 2.685964,6.16826 5.724171,11.95744 7.314341,13.93603 0.977011,1.21559 3.319503,4.62787 5.204363,7.58538 1.885674,2.95697 6.416147,8.98201 10.068043,13.38829 3.65206,4.40627 6.492835,8.37171 6.311113,8.81072 -0.299856,0.72556 -7.555785,1.55732 -23.836547,2.73488 -3.283836,0.23753 -6.880713,0.52514 -7.991944,0.63807 C 9.4784872,494.17307 4.778973,494.39817 0,494.58338 l 0,6.38641 c 3.9859755,-0.11265 8.7474,-0.26815 15.404162,-0.50632 13.899051,-0.49727 22.891877,-1.32792 23.962656,-2.21351 0.297124,-0.24587 0.901485,-0.28414 1.343912,-0.0866 1.487812,0.66465 21.117111,-3.45351 31.372991,-6.58215 5.591037,-1.7056 20.981493,-5.76926 34.200099,-9.02906 13.21868,-3.25983 26.71515,-6.66535 29.99332,-7.56844 3.2781,-0.90309 8.19303,-1.98341 10.92069,-2.40172 2.72762,-0.41827 10.70577,-2.42655 17.73059,-4.46277 7.02484,-2.03616 15.16464,-4.28526 18.08823,-4.99732 2.9236,-0.71213 10.98838,-3.09486 17.92258,-5.29471 15.00836,-4.7614 17.62388,-5.46485 26.30979,-7.08282 6.92194,-1.28933 18.47594,-4.80133 18.9484,-5.75962 0.3717,-0.75401 18.16339,-4.31259 29.39101,-5.8782 10.67746,-1.48885 26.31739,-2.13796 34.18316,-1.41733 21.18723,1.94097 25.40191,2.71971 42.03958,7.75102 12.01302,3.63281 38.45647,16.38685 52.88123,25.50609 2.81666,1.78069 11.60243,7.17102 19.52435,11.97851 7.92195,4.80748 16.54282,10.09714 19.15545,11.7564 12.6212,8.01514 37.92964,19.77857 71.04661,33.01994 17.19403,6.87479 22.09833,8.05393 35.60236,8.56602 1.55432,0.0592 4.9012,0.27744 7.43857,0.48373 2.53732,0.20637 5.71178,0.3353 7.05459,0.28798 1.34296,-0.0493 2.72703,0.0372 3.07557,0.19011 0.34867,0.15265 3.74,-0.15578 7.53644,-0.68701 7.85534,-1.09917 21.4508,-5.7882 27.73088,-9.56361 8.57729,-5.15641 14.18773,-15.87695 13.78357,-26.33991 -0.10808,-2.7938 -0.0159,-2.94941 1.79752,-3.04357 3.19569,-0.16554 6.66273,1.89872 10.14522,6.04008 5.62987,6.69534 7.59967,16.13054 5.5601,26.62789 -0.80657,4.15108 -3.45515,7.63019 -10.9414,14.37647 -4.25838,3.83756 -5.93162,7.65254 -6.8419,15.59238 -0.4876,4.25335 0.36978,15.13551 1.32321,16.7989 0.19442,0.33914 0.96501,3.16067 1.71282,6.2697 1.65895,6.89671 1.66826,15.09771 0.0245,21.10919 l 0,0.002 c -0.67623,2.47285 -1.76685,5.49399 -2.4243,6.7139 -2.10667,3.90952 -5.95376,9.59478 -6.65745,9.83842 -0.37501,0.12977 -1.51373,-0.60965 -2.52972,-1.64131 -1.01606,-1.03173 -6.16472,-3.97336 -11.44206,-6.53886 -7.92043,-3.85016 -10.84348,-4.8889 -16.74055,-5.94972 -13.90048,-2.5007 -23.41738,-1.52966 -37.99843,3.87927 -11.15951,4.13963 -17.24728,6.92739 -24.42381,11.18233 -3.1367,1.85988 -8.75334,4.64539 -12.48294,6.19064 -11.81694,4.89604 -33.1776,9.47912 -42.45556,9.10811 -3.48856,-0.13956 -15.97603,-2.51637 -16.17022,-3.07744 -0.06,-0.17344 1.12772,-2.23866 2.63888,-4.59077 3.05652,-4.75751 6.67173,-17.77079 6.34876,-22.85025 -0.0991,-1.55787 -0.22151,-3.88136 -0.27104,-5.16484 -0.10199,-2.64112 -2.26318,-9.26784 -3.15273,-9.66524 -0.32198,-0.14391 -1.29499,-1.46595 -2.16269,-2.93816 -0.86767,-1.47226 -4.04336,-4.8032 -7.05647,-7.40093 -4.64058,-4.00066 -7.52604,-5.70376 -18.86558,-11.14467 -7.36279,-3.53277 -13.34913,-6.50302 -13.30172,-6.5991 0.0475,-0.0963 1.2662,-1.05318 2.70665,-2.12692 2.1033,-1.56795 3.64331,-4.02401 7.82631,-12.46976 2.86404,-5.78397 5.90958,-12.64227 6.76849,-15.24041 1.87729,-5.67818 3.14755,-16.22414 2.28127,-18.94087 -0.59852,-1.877 -0.43138,-1.87235 4.01479,0.12611 4.37936,1.96707 4.66482,2.26391 5.09519,5.30789 0.68756,4.86263 0.41962,12.74489 -0.55902,16.42997 -0.47923,1.80405 -2.79224,7.03313 -5.14037,11.62088 -2.34811,4.58774 -4.04391,8.67357 -3.76634,9.07799 0.8427,1.23362 6.66456,-4.7899 10.02476,-10.37108 4.00357,-6.64999 5.83708,-13.66782 5.32105,-20.36384 -0.21715,-2.81856 -0.30863,-5.29847 -0.20328,-5.51116 0.10512,-0.21316 2.80438,0.77898 5.99866,2.20598 5.1601,2.30514 5.84125,2.84155 6.11537,4.79779 0.75306,5.37417 -0.66669,11.02073 -5.50929,21.90162 -4.71126,10.58577 -5.10644,13.18996 -1.15004,7.58162 1.04649,-1.48341 2.28925,-2.9395 2.76124,-3.23367 2.69244,-1.68034 5.05136,-6.00699 7.52514,-13.80238 1.46495,-4.61646 2.62264,-9.15688 2.57301,-10.08875 -0.0839,-1.56686 0.38158,-1.48316 6.20006,1.11616 7.78787,3.47904 8.02886,4.34633 3.38237,12.1799 -1.71988,2.90078 -3.28596,6.08633 -3.48025,7.07906 -0.34286,1.75334 -0.26727,1.76729 2.63513,0.53268 2.76212,-1.17508 3.19132,-1.74567 5.68621,-7.55716 l 2.69912,-6.28475 5.66362,1.8954 c 3.11461,1.04308 5.76112,2.15853 5.88197,2.47889 0.35879,0.95184 -1.13136,6.77664 -2.40737,9.41679 -0.65195,1.34839 -0.8514,2.6002 -0.44421,2.78194 1.14296,0.5106 5.21581,-5.14087 5.73139,-7.95242 0.55434,-3.02278 1.20386,-3.29661 5.35682,-2.26055 l 3.20543,0.79995 -2.01774,4.09196 c -1.10976,2.25123 -1.88947,4.43212 -1.73353,4.84674 0.42375,1.12414 4.49832,-2.66874 5.88196,-5.4754 1.10108,-2.23336 1.47525,-2.37288 4.30089,-1.60743 3.96463,1.07399 4.30809,1.66258 2.78194,4.75828 -1.36278,2.76426 -1.07777,3.92403 0.90912,3.70234 1.09498,-0.12215 2.70391,-1.93702 4.50417,-5.08202 0.26195,-0.45758 1.91286,-0.46299 3.67034,-0.0132 1.7575,0.44976 3.94167,0.92328 4.85239,1.05594 1.29154,0.18676 1.40528,0.50049 0.51762,1.42673 -0.62601,0.65305 -1.06114,1.79463 -0.96747,2.53536 0.13673,1.07889 0.49666,1.11528 1.80883,0.1807 0.90081,-0.64157 1.88577,-1.6716 2.18902,-2.28692 0.30653,-0.62164 2.03151,-0.94987 3.88305,-0.73971 2.9057,0.33004 3.37838,0.60283 3.68728,2.12691 0.42118,2.0781 2.22559,2.09952 3.2412,0.0395 0.49501,-1.00409 1.88216,-1.39905 4.4063,-1.26486 4.16718,0.22521 8.41156,-1.74464 7.71902,-3.58189 -0.30034,-0.79682 -1.15853,-1.05129 -2.79888,-0.83006 -4.13143,0.55713 -21.47945,-2.08708 -28.8301,-4.395 -6.57469,-2.06433 -8.95944,-2.69959 -12.72575,-3.38614 -8.74952,-1.59472 -15.86992,-4.20373 -35.35579,-12.95538 -11.48224,-5.15703 -23.96001,-10.97339 -27.729,-12.92526 -59.58653,-30.85774 -66.06038,-34.01156 -81.69249,-39.79597 -20.66571,-7.64697 -25.89814,-9.05341 -38.01727,-10.22238 -21.27474,-2.05201 -48.77844,0.11816 -69.30743,5.46975 -14.36417,3.74448 -29.30648,7.13555 -30.0272,6.81367 -0.34585,-0.15452 -3.52252,0.54418 -7.06023,1.55284 -14.38433,4.10128 -17.96941,4.91997 -40.92154,9.35844 -4.12744,0.79817 -10.20262,2.17056 -13.49935,3.04921 -7.13906,1.90276 -13.84652,3.43952 -29.66581,6.79297 -6.48332,1.3744 -15.5187,3.3139 -20.07773,4.31031 -18.580791,4.0611 -42.246235,8.18375 -47.023731,8.19146 -1.624147,0.003 -4.435564,0.36295 -12.460356,1.59613 -6.439624,0.98952 -36.734814,3.45236 -42.229688,3.43318 C 9.1634762,515.64617 3.7922736,515.41949 0,515.16179 l 0,4.44394 c 8.7796613,0.63647 21.01274,0.58791 27.516304,-0.12987 2.852766,-0.31487 6.405358,-0.64913 7.894069,-0.74348 7.660437,-0.48563 15.427319,-1.36257 26.185569,-2.95698 6.548154,-0.97055 14.578199,-1.93078 17.845412,-2.13446 6.126875,-0.38198 28.332656,-4.33285 42.602366,-7.57973 9.46865,-2.1545 18.28774,-4.06247 29.05973,-6.28476 4.24929,-0.87671 10.75548,-2.43408 14.45741,-3.46142 3.70192,-1.02729 9.44996,-2.38209 12.7728,-3.00969 3.3228,-0.62759 10.2464,-1.944 15.38723,-2.92686 5.14094,-0.98295 11.10964,-2.11849 13.26218,-2.52219 l 3.91315,-0.73406 0.39715,4.49476 c 0.63516,7.18236 14.7885,48.3577 18.58701,54.07455 0.83816,1.26148 2.98228,4.9503 4.76581,8.19522 2.98703,5.43488 9.73611,14.16259 11.59264,14.99196 0.43236,0.19315 1.57272,1.30027 2.53349,2.46007 3.45896,4.17543 10.17121,8.81815 19.63164,13.5784 11.50274,5.78786 16.71507,7.25989 31.77767,8.97636 9.1339,1.04092 13.10936,0.97104 22.71474,-0.39904 11.33368,-1.61659 19.39311,-2.9613 24.86425,-4.14844 10.21713,-2.21686 18.66396,-3.63202 23.67279,-3.96773 10.12001,-0.67893 19.16193,-0.73354 19.39449,-0.1167 0.12334,0.32731 -0.79941,1.68991 -2.04975,3.02663 -6.60505,7.06121 -10.27897,25.12038 -6.55957,32.24258 1.71,3.27455 1.45384,4.38627 -1.22533,5.31353 -1.03045,0.35647 -1.76949,0.92548 -1.64131,1.26485 0.40281,1.06859 -7.11218,6.78572 -13.77414,10.47838 -24.90827,13.80654 -31.97154,16.76414 -53.98045,22.59804 -6.19783,1.64283 -11.82785,3.24359 -12.51118,3.55929 -1.19987,0.55418 -9.12806,1.88169 -23.89112,3.99785 -11.8411,1.69729 -32.04792,1.22876 -41.78361,-0.96746 -1.95665,-0.44143 -6.6654,-1.50687 -10.46331,-2.36784 -4.71503,-1.06884 -10.57518,-3.22415 -18.47783,-6.79485 -10.20103,-4.60929 -12.53779,-5.98716 -19.70129,-11.62089 -4.47005,-3.51546 -9.10319,-7.47737 -10.2958,-8.80506 -5.00976,-5.5762 -10.49316,-15.41796 -16.1514,-28.99009 -2.85426,-6.84644 -2.59888,-18.62496 0.54208,-24.996 l 1.68271,-3.4106 1.19145,2.93252 c 1.28375,3.15633 5.89705,7.88549 9.08364,9.31514 3.21651,1.44243 10.53092,2.14229 14.27482,1.36462 1.92321,-0.39942 5.36559,-2.19903 7.64938,-3.99973 3.64012,-2.86996 4.40151,-3.9181 6.16429,-8.49074 4.56973,-11.85373 4.67227,-12.75517 2.29633,-19.96857 -2.06416,-6.26669 -3.93366,-8.4455 -10.19603,-11.88063 -11.26536,-6.17951 -26.78207,-5.52952 -35.45743,1.48508 -11.346,9.17389 -21.00172,25.67446 -22.56793,38.56875 -0.45571,3.75143 -0.99646,5.36603 -1.94246,5.79162 -1.84878,0.83138 -16.92352,2.30515 -23.21353,2.26997 -12.921005,-0.0723 -22.788768,-0.58115 -25.733833,-1.32697 -0.938418,-0.23769 -2.337659,-0.46687 -3.10756,-0.51196 -2.207348,-0.12594 -21.298138,-3.26504 -27.073981,-4.45148 -14.295592,-2.93651 -21.524317,-4.73796 -27.418429,-6.83626 -3.554039,-1.26522 -7.766019,-2.72051 -9.360324,-3.23366 C 13.540776,580.30444 8.9595098,578.64845 4.9540265,577.13794 3.2386174,576.49107 1.5480239,575.87814 0,575.32536 l 0,6.40146 c 1.7377096,0.64247 3.5037408,1.26968 4.8523861,1.69588 l 4.2538375,1.34391 -2.7631122,6.88332 C 3.9788626,597.53797 1.8666706,603.41533 0,609.29206 l 0,23.90619 c 3.3076669,-16.03837 8.062651,-32.19463 12.279662,-40.74838 2.809892,-5.69958 1.92148,-5.58824 13.819324,-1.75612 14.891931,4.79649 50.135636,10.60971 71.362825,11.76958 4.025659,0.22 5.090449,0.53373 5.223179,1.54154 0.33546,2.54954 -3.270122,8.08135 -8.010758,12.29096 -8.503145,7.55062 -15.983029,13.25573 -22.368408,17.06429 -3.426562,2.04381 -8.373867,5.32192 -10.994099,7.28422 -6.220179,4.65826 -12.822899,7.85059 -27.702645,13.39018 -13.151794,4.89632 -21.668775,7.03815 -28.4216571,7.1487 C 3.4181271,661.21215 1.5920554,661.27593 0,661.3338 l 0,4.70558 c 1.45018,-0.13982 3.1482108,-0.28768 4.9935533,-0.41786 6.6147827,-0.46673 11.5775677,-1.4442 22.7166207,-4.47782 1.754048,-0.47772 7.644461,-2.6529 13.090903,-4.83357 l 9.902406,-3.96585 0.81877,4.23501 c 0.450374,2.329 2.957189,9.37298 5.569515,15.65262 8.329025,20.02196 9.679011,22.2375 27.879575,45.73817 0.560047,0.72308 1.537559,1.54672 2.170209,1.82952 2.374747,1.06084 2.808397,7.43134 0.950526,13.94732 -1.479855,5.19025 -7.053006,17.29708 -10.69106,23.66714 l 7.417864,0 -1.123691,-1.20086 4.329127,-8.8333 4.329126,-8.83142 1.488843,4.76769 c 1.306327,4.1862 3.229861,8.47034 6.282873,14.09789 l 6.88708,0 c -3.25282,-5.78935 -6.12099,-11.5492 -7.432917,-15.26675 -4.045156,-11.46255 -6.942237,-29.51547 -7.263523,-45.26384 -0.494769,-24.25108 0.06435,-29.58137 6.38829,-60.89952 1.59062,-7.87712 5.57823,-19.7299 9.0347,-26.85 l 2.99085,-6.15677 3.79081,-0.38962 c 2.08486,-0.21431 4.78385,-0.51062 5.99866,-0.65878 2.19117,-0.2666 2.18677,-0.22424 -0.4969,5.22506 -4.4687,9.07344 -12.32437,29.22908 -13.64427,35.00947 -0.6795,2.97596 -1.62408,7.09387 -2.10057,9.15139 -1.58431,6.84138 -3.65115,30.80171 -3.50471,40.63356 0.0795,5.33305 0.60438,12.58384 1.16509,16.11376 0.5607,3.52995 1.06708,7.47233 1.12557,8.75989 0.0587,1.28749 0.52298,3.76255 1.03146,5.50176 0.50863,1.73919 1.51343,7.44872 2.23233,12.6881 0.7189,5.23941 1.78577,9.74331 2.37161,10.00781 0.62384,0.28142 1.10806,-0.0687 1.16887,-0.84888 0.0568,-0.73135 0.44072,-1.1796 0.85264,-0.9957 0.74608,0.33328 0.9938,-2.30109 1.03899,-11.00162 0.0418,-8.03629 0.87022,-18.2079 1.60366,-19.69565 0.39069,-0.7925 0.58644,-1.76944 0.43479,-2.17209 -1.28449,-3.40762 5.48923,-33.86498 11.28774,-50.75431 3.53011,-10.28221 13.1129,-29.04202 15.64131,-30.62009 0.41682,-0.26014 1.47665,0.74902 2.35656,2.24173 l 1.59989,2.71418 -3.30143,5.02742 c -7.56717,11.52215 -15.77963,32.51629 -19.0971,48.81749 -0.89658,4.40577 -1.84742,8.45268 -2.11373,8.99329 -0.51625,1.04766 -1.89026,19.5228 -1.77682,23.90243 0.0368,1.43737 0.0566,7.14983 0.0433,12.69375 -0.0133,5.54395 0.31374,12.70832 0.72653,15.91989 0.30346,2.3612 0.60141,5.45529 0.82442,8.17264 l 5.39635,0 c 0.004,-0.42145 -0.002,-0.84877 0.0226,-1.25732 0.0752,-1.22776 0.0498,-3.37696 -0.0565,-4.77711 -0.1373,-1.80953 0.13421,-2.58284 0.93924,-2.67275 2.01363,-0.2247 14.84447,-10.99498 18.67359,-15.67521 3.48196,-4.25593 7.21557,-8.02973 7.7209,-7.80373 0.44651,0.19947 7.40491,9.77638 8.75801,12.0538 2.28514,3.84623 10.65013,13.68822 15.88601,18.69054 0.52818,0.50463 1.05314,0.97947 1.58108,1.44178 l 9.08928,0 c -5.69607,-3.6308 -9.92225,-7.52073 -15.5378,-14.09978 -12.13301,-14.21461 -21.0204,-29.3714 -27.11915,-46.25389 -2.25335,-6.23768 -4.43521,-13.92416 -4.84862,-17.08123 -0.8328,-6.3605 0.11886,-17.76993 2.17773,-26.11215 1.36093,-5.51452 4.54467,-12.90842 5.73515,-13.32054 0.35823,-0.124 3.13796,2.33881 6.17748,5.47352 14.32252,14.77078 19.18016,18.41467 35.86023,26.89894 8.56676,4.35742 22.22424,9.51136 29.25736,11.04115 l 2.30761,0.50255 -4.52111,4.26325 c -4.23124,3.9893 -5.00546,5.22687 -12.04439,19.24956 l -7.52326,14.9863 -0.69454,7.78678 c -0.84267,9.45447 -0.59927,21.67925 0.52702,26.53755 0.0113,0.0488 0.019,0.08 0.0301,0.12799 l 5.57893,0 c -1.00673,-5.93079 -1.67556,-12.38785 -1.34391,-14.57221 0.26387,-1.73717 0.52185,-3.96604 0.57408,-4.95215 0.0514,-0.98613 0.58259,-5.28861 1.18204,-9.56172 1.02077,-7.27714 1.46111,-8.50649 6.96989,-19.39825 5.97404,-11.81119 8.40115,-15.23653 14.42352,-20.36383 2.51169,-2.13833 3.94114,-2.74007 5.63539,-2.36974 1.24862,0.2743 3.12685,0.51321 4.17291,0.53268 1.04603,0.0194 4.47258,0.51383 7.6155,1.09734 3.14301,0.58354 7.09251,1.11564 8.77494,1.18204 3.65934,0.14518 3.56798,0.45949 -1.01075,3.53482 -4.59222,3.08439 -11.8109,10.00274 -17.42756,16.7029 -9.65834,11.52143 -16.06449,29.20433 -15.982,44.11192 0.009,1.57862 0.0493,2.87067 0.12234,4.0562 l 9.02529,0 c -1.3778,-5.4193 -1.77228,-10.92633 -1.14439,-16.41492 0.5468,-4.7798 1.45902,-7.3325 5.79349,-16.21728 4.385,-8.988 5.8253,-11.25616 9.75183,-15.36652 5.23382,-5.47878 10.80306,-9.85821 13.345,-10.49154 0.94936,-0.23677 1.89931,-0.77939 2.10998,-1.20651 1.35888,-2.75636 12.16985,-5.47507 24.10195,-6.06266 10.04133,-0.49444 32.90054,-5.18722 40.44533,-8.30251 2.39701,-0.98976 6.58606,-2.6726 9.30762,-3.73811 2.72162,-1.06548 6.24314,-2.51474 7.82631,-3.22238 3.99375,-1.7849 17.7615,-1.10695 37.79327,1.86153 11.93576,1.76872 11.21875,1.62181 21.79434,4.45336 4.19629,1.12351 10.3685,2.61946 13.7158,3.32401 12.30138,2.58868 16.62763,4.06989 32.43269,11.09951 12.98847,5.77708 17.78227,8.28624 24.58378,12.86879 12.48525,8.41177 28.82496,24.92268 21.36707,21.59105 -3.28545,-1.46769 -11.76996,-1.19447 -15.85025,0.51008 -4.47901,1.87122 -9.14839,7.30065 -11.48725,13.35818 -1.16197,3.00661 -1.31338,5.77957 -0.62301,11.46842 0.0211,0.17409 0.048,0.31752 0.0696,0.4875 l 9.17022,0 c -0.77053,-3.2092 -0.98774,-6.50069 -0.48938,-9.66524 1.40624,-8.92993 15.84051,-11.73226 24.964,-4.84674 3.82766,2.88868 7.87852,8.33706 7.24846,9.74995 -0.21147,0.47434 -0.0619,1.51997 0.33316,2.32455 0.62539,1.27355 1.01499,0.86123 3.00968,-3.18473 2.25097,-4.56584 2.25603,-4.7511 0.25411,-10.56684 -3.89197,-11.30661 -16.74128,-26.10974 -33.08771,-38.12078 -22.0096,-16.17235 -66.06158,-30.32917 -103.1085,-33.13664 -7.0225,-0.53213 -13.98295,-0.92588 -15.46816,-0.87335 -2.55462,0.0905 -2.35409,-0.10988 3.70612,-3.72305 11.35741,-6.77132 36.72066,-23.25964 37.1646,-24.1603 0.30835,-0.62536 3.83872,0.64823 12.4246,4.48348 16.64351,7.43439 31.77501,11.8323 45.58005,13.24712 7.30596,0.74876 8.89049,1.29589 13.89461,4.80156 11.64581,8.15851 16.45529,12.11853 23.20977,19.10275 16.37289,16.92955 25.43596,31.3683 29.99708,47.79544 1.08522,3.90799 1.16531,17.01147 0.15435,25.1654 -0.0703,0.56686 -0.15954,1.07633 -0.24092,1.60742 l 5.87631,0 c 0.31734,-1.83707 0.67259,-3.96199 0.88088,-5.11213 1.65724,-9.15314 1.30708,-15.28105 -1.50766,-26.41897 -0.76018,-3.00802 -1.22594,-5.78503 -1.03523,-6.17182 0.18989,-0.38628 -0.5233,-1.78528 -1.58672,-3.10756 -2.10797,-2.62084 -6.69551,-11.68259 -6.03066,-11.91263 0.84984,-0.29412 24.08855,16.913 38.77392,28.70963 4.91496,3.94817 12.07385,9.57614 15.90671,12.50742 3.83282,2.93122 8.04807,6.20482 9.36785,7.27481 1.41227,1.14495 3.37205,2.63564 5.51117,4.23125 l 16.07801,0 c -7.89058,-5.69423 -15.50502,-11.06528 -20.08715,-14.09224 -3.18507,-2.10407 -7.99386,-5.48877 -10.68541,-7.52327 -10.84451,-8.19734 -16.48408,-12.40114 -24.5631,-18.30469 -11.58026,-8.46203 -13.98142,-10.25994 -19.97609,-14.95618 -2.85561,-2.23707 -7.07523,-5.50192 -9.37727,-7.25599 -14.98386,-11.41761 -36.98253,-31.02697 -37.13449,-33.10088 -0.0613,-0.83638 -0.88399,-1.87934 -1.82953,-2.31703 -1.70191,-0.78917 -1.69902,-0.80194 0.41221,-1.22909 1.17256,-0.23727 3.25805,-0.73647 4.63405,-1.11052 3.17006,-0.86183 3.49721,-0.69686 7.34445,3.70046 1.75137,2.00181 4.26074,4.52255 5.57517,5.60341 1.31442,1.08081 6.21769,5.58588 10.8981,10.00968 4.6804,4.42387 10.22819,9.37403 12.3286,11.00163 2.10047,1.6277 7.00611,5.69568 10.89999,9.03847 3.89385,3.34284 11.00717,9.05864 15.80884,12.70127 4.80165,3.64263 9.04475,6.8613 9.42809,7.15436 0.38329,0.29314 1.56707,1.39571 2.63136,2.44878 1.74845,1.72997 4.62531,3.88398 21.02638,15.74672 2.72345,1.9699 6.19826,4.55454 7.72278,5.74457 1.52452,1.19 4.66931,3.57215 6.98683,5.29471 2.30964,1.71667 9.23258,6.86381 15.39663,11.44583 l 8.18582,0 c -5.60663,-4.27043 -17.87624,-13.2078 -29.27995,-21.30118 -12.51177,-8.8798 -26.67564,-19.56669 -31.47464,-23.74996 -4.79908,-4.18326 -13.72931,-11.46917 -19.84622,-16.19094 -13.92127,-10.74612 -21.53822,-16.99812 -26.98551,-22.15007 -2.33977,-2.21285 -7.58586,-7.16636 -11.65665,-11.00728 l -7.40092,-6.98306 11.42701,-4.10326 c 6.28502,-2.25611 11.59221,-4.21315 11.79404,-4.35172 0.202,-0.13797 0.83198,0.77558 1.3985,2.03093 0.86504,1.91691 5.35213,7.13546 19.05756,22.16324 1.02778,1.12697 3.08151,3.09239 4.56441,4.36677 1.48291,1.27441 3.80957,3.56575 5.1686,5.09144 3.70563,4.15978 11.05631,11.29101 19.79917,19.20814 5.12695,4.64277 18.10673,14.71293 28.11109,21.80939 3.12835,2.21905 8.65747,6.33571 12.2853,9.14763 7.29379,5.6533 19.08144,13.32992 27.23963,17.74001 2.91712,1.57693 6.00927,3.37608 6.87201,3.99785 0.86282,0.62174 3.82915,2.37831 6.59157,3.90374 0.20524,0.11335 0.43012,0.25647 0.64184,0.37833 l 8.21028,0 c -8.68122,-5.41004 -19.24955,-11.91332 -25.79407,-15.8239 -10.49289,-6.26989 -19.66267,-12.3173 -23.89865,-15.7599 -2.07245,-1.68438 -7.14154,-5.4164 -11.26515,-8.2931 -14.55668,-10.15487 -33.45458,-26.24648 -43.9331,-37.4093 -1.90329,-2.02756 -7.08226,-7.27126 -11.50983,-11.65288 -4.42762,-4.38165 -10.72817,-11.17568 -14.00002,-15.09736 l -5.94785,-7.12988 2.83464,-0.98064 2.83464,-0.98252 5.31541,6.52945 c 8.58141,10.54003 22.83063,25.66319 32.44775,34.43538 14.72265,13.42909 65.34365,49.45333 85.52472,60.86375 5.39629,3.05114 13.17012,7.70885 18.97475,11.3009 l 16.44692,0 c -1.41286,-0.90896 -7.1747,-4.30717 -13.91909,-8.19899 -15.34817,-8.85657 -29.51574,-17.8398 -38.74756,-24.57061 -3.49423,-2.54752 -8.13099,-5.8419 -10.3052,-7.31999 -2.17418,-1.47802 -6.79858,-4.8005 -10.27509,-7.38399 -3.47649,-2.58349 -8.45595,-6.06122 -11.06563,-7.72654 -2.60973,-1.6653 -5.65764,-3.80181 -6.77414,-4.74887 -1.11649,-0.9471 -5.65546,-4.44116 -10.08687,-7.76419 -4.43142,-3.32301 -8.63904,-6.61508 -9.34903,-7.31623 -0.70986,-0.70129 -4.43679,-4.07766 -8.28368,-7.50256 -7.72905,-6.88136 -15.80526,-15.99671 -13.26408,-14.97125 4.84305,1.95407 22.64714,-0.15938 29.52841,-3.50471 5.42666,-2.63824 13.695,-8.93363 18.30468,-13.93791 1.88825,-2.04977 5.15066,-4.72106 7.25035,-5.93466 5.3948,-3.12023 7.36972,-5.50939 13.11725,-15.86343 8.9036,-16.03972 9.94725,-23.58992 5.83303,-42.21839 -2.64771,-11.98845 -2.62086,-17.74136 0.10917,-23.08554 1.73642,-3.39902 8.79748,-12.01568 10.26191,-12.52247 1.82618,-0.63201 4.71156,-8.47886 5.36247,-14.58163 0.37709,-3.5377 0.8522,-7.18913 1.05405,-8.11428 0.74306,-3.40522 -1.5462,-12.68904 -4.1315,-16.75749 -3.4186,-5.37987 -6.77896,-8.05997 -12.9949,-10.36167 -8.60645,-3.187 -19.16818,-0.85899 -18.89946,4.16537 0.0651,1.21674 0.90808,2.2328 2.41113,2.90428 2.82882,1.2637 3.20674,4.80006 1.14439,10.69671 -2.0298,5.80358 -7.00251,10.36909 -15.30063,14.04707 -11.00635,4.87837 -23.97408,6.49393 -42.40098,5.28342 -14.67869,-0.96436 -16.55567,-1.32216 -25.68113,-4.9145 -46.65426,-18.36627 -64.76955,-26.6419 -77.97321,-35.61554 -3.49312,-2.37409 -10.9236,-7.00808 -16.5128,-10.29956 -5.58913,-3.29144 -12.15015,-7.2081 -14.57974,-8.70342 -17.90656,-11.02041 -25.58959,-15.24514 -39.63598,-21.79433 -20.96138,-9.77346 -33.13161,-13.65823 -53.89574,-17.20169 -1.70397,-0.29079 -4.87741,-0.86332 -7.05083,-1.27238 -2.17335,-0.4095 -4.43853,-0.6307 -5.03497,-0.49127 -0.5965,0.1396 -2.86371,-0.0473 -5.03684,-0.41597 -4.20399,-0.71328 -22.30352,-0.5435 -25.1014,0.23528 -0.91764,0.25543 -3.42542,0.58188 -5.57328,0.72654 -5.60502,0.37689 -17.86802,3.53368 -28.65129,7.37645 -13.01535,4.63811 -19.22887,4.25358 -33.52438,-2.07233 -7.84552,-3.47184 -14.61396,-7.66936 -20.67817,-12.82363 -2.35868,-2.00476 -12.81798,-14.05706 -13.07396,-15.06536 -0.0897,-0.35336 -0.86194,-1.41749 -1.71471,-2.36407 -4.87873,-5.41481 -8.87826,-21.16327 -7.97688,-31.405 0.69452,-7.8909 0.14501,-9.39498 -3.8134,-10.44072 -4.17598,-1.10328 -6.1111,0.29878 -9.27186,6.71391 -8.89031,18.04328 -9.53735,43.87122 -1.62248,64.82021 l 3.85668,10.20921 -2.94756,-1.19899 c -1.6216,-0.65938 -4.04688,-1.59954 -5.38883,-2.08927 -7.22382,-2.6359 -30.99546,-15.80749 -38.44076,-21.29931 -1.54817,-1.14199 -5.4751,-3.91394 -8.72601,-6.16053 -7.80468,-5.39363 -25.999811,-21.90386 -26.966696,-24.46898 -0.22174,-0.58833 -1.041578,-1.35367 -1.820116,-1.70153 -0.778671,-0.34772 -1.266033,-0.93386 -1.084164,-1.30251 0.181715,-0.36862 -0.497564,-1.31431 -1.509547,-2.10245 -1.011996,-0.78804 -2.846708,-2.99523 -4.076908,-4.9032 -3.700398,-5.73919 -4.365753,-6.67685 -5.895142,-8.32322 -1.67498,-1.80333 -8.152148,-11.74382 -9.800766,-15.04089 -2.668997,-5.33749 -10.934538,-27.98712 -12.065087,-33.06135 -3.811206,-17.10545 -2.807241,-32.15827 2.71041,-40.62415 3.519631,-5.40022 3.73132,-7.40549 1.104869,-10.46331 -1.941228,-2.25996 -3.572078,-3.41217 -5.778443,-3.26002 z m 125.04211,101.34674 -0.51385,4.54181 c -0.69411,6.12879 0.30463,11.59248 3.76823,20.60664 3.21442,8.3656 4.94167,11.21005 12.77845,21.03768 8.11277,10.17354 17.33465,17.05443 31.59697,23.5768 6.22856,2.84855 11.30986,5.20654 11.29338,5.24201 -0.33772,0.68512 -5.76739,1.4217 -7.71337,1.04652 -7.07439,-1.36371 -24.14923,-11.29039 -29.83522,-17.34474 -0.69226,-0.7371 -2.54576,-2.67118 -4.11831,-4.29902 -4.23703,-4.38601 -10.39663,-13.25119 -12.68811,-18.25949 -2.10482,-4.60031 -4.17188,-5.75015 -3.98279,-2.21539 0.30426,5.68841 3.35228,11.47416 10.55366,20.04009 7.30393,8.68792 11.51452,12.29277 23.68596,20.27537 3.19077,2.09262 5.92866,3.90337 6.08336,4.02232 0.15496,0.11905 -0.54226,0.57006 -1.54907,1.00324 -1.0068,0.43315 -2.30525,1.24808 -2.88546,1.81069 -1.09289,1.05941 -10.89323,1.45907 -16.3848,0.6682 -10.22301,-1.47216 -14.14264,-2.70462 -15.19711,-4.78086 -12.39663,-24.40979 -15.56802,-40.57094 -11.24632,-57.28753 0.98835,-3.82057 1.75527,-7.68138 1.70718,-8.57919 -0.048,-0.89777 0.97883,-3.76207 2.27938,-6.36758 l 2.36784,-4.73757 z m 145.29114,98.45187 c 9.40562,0.1195 21.70177,1.14478 20.41465,2.02339 -0.52145,0.35605 -2.21407,1.32004 -3.76258,2.14197 -8.64653,4.58846 -22.51451,24.99116 -25.10892,36.94251 -1.6763,7.72171 -1.83935,16.83472 -0.39716,22.15761 2.36536,8.73032 10.13513,20.75102 19.80857,30.64645 2.73367,2.79643 6.6294,6.09742 8.65826,7.33503 l 3.68917,2.24927 -3.42754,0.13929 c -14.56648,0.59119 -33.65731,-2.52722 -44.1458,-7.2127 -8.92494,-3.98703 -20.9899,-12.67852 -26.87069,-19.35684 -12.41824,-14.10232 -22.02493,-34.57927 -23.3754,-49.82637 -0.39313,-4.43783 -0.59453,-8.31215 -0.44798,-8.60931 0.14653,-0.29717 0.12621,-0.91142 -0.0452,-1.3665 -0.6672,-1.76991 1.49066,-4.22916 4.66228,-5.31353 3.29333,-1.12598 4.43266,-1.44204 17.53484,-4.87309 12.60516,-3.30092 14.45793,-3.68064 23.85726,-4.88251 4.22476,-0.54027 8.90755,-1.17964 10.40684,-1.42108 1.49934,-0.24141 4.18289,-0.42729 5.9629,-0.4141 1.7799,0.0133 3.91908,-0.0487 4.75451,-0.13739 1.88274,-0.20021 4.69675,-0.26194 7.83196,-0.2221 z m 32.18423,3.93762 c 0.27356,-0.009 0.50162,0.007 0.66631,0.0546 1.70401,0.48831 23.04891,8.19066 31.09631,11.22185 10.74427,4.04696 32.11623,15.24516 34.37137,18.00917 3.23075,3.95978 4.72558,12.91617 3.74941,22.46439 -0.46215,4.52006 -1.45544,7.52818 -4.99355,15.13501 -4.53266,9.74502 -7.95928,14.50327 -12.27402,17.04358 -1.15644,0.68079 -2.33844,1.71766 -2.62759,2.30385 -0.28899,0.58623 -2.82152,1.12323 -5.62787,1.19522 -5.67363,0.14519 -11.39327,1.45452 -30.78761,7.04894 l -13.18878,3.80399 -6.80239,-3.71929 c -7.36393,-4.02676 -11.71194,-8.22543 -19.04438,-18.39314 -4.18819,-5.80768 -9.37537,-18.78921 -9.81771,-24.56685 -0.15211,-1.98954 -0.0327,-6.5649 0.26728,-10.16779 0.47199,-5.67165 1.05388,-7.55395 4.32724,-14.0339 4.38502,-8.6807 11.37295,-17.4441 15.98389,-20.04198 6.73021,-3.79167 7.93601,-4.54729 8.24416,-5.17237 0.39045,-0.79191 4.543,-2.11898 6.45793,-2.18526 z M 226.23639,483.386 c 0.77589,-0.009 1.28223,0.0708 1.26862,0.27481 -0.12079,1.77388 0.38174,13.56121 0.61926,14.52704 6.51475,26.49026 14.25222,40.7805 30.89113,57.05036 9.6013,9.38827 29.47448,20.32724 39.35177,21.66257 18.70437,2.52839 29.25478,2.1654 45.03609,-1.55284 2.39221,-0.56362 8.82657,-2.12477 14.29929,-3.46895 18.68798,-4.59008 24.77135,-5.39247 36.09363,-4.76391 10.76814,0.59781 14.7015,1.65758 28.32942,7.64561 l 12.22508,5.37188 4.65475,5.1573 c 9.60905,10.64534 11.90533,17.4473 9.89676,29.31572 -1.48365,8.7658 -5.63349,14.12337 -12.8801,16.63138 -6.76711,2.34206 -13.14293,1.47039 -19.56576,-2.67466 -9.5885,-6.18792 -15.52526,-14.2405 -15.22723,-20.64993 0.20811,-4.47331 1.73971,-11.91386 3.06238,-14.8809 1.38299,-3.10199 6.5598,-5.83418 10.7193,-5.65798 6.1899,0.26291 14.95774,8.73386 16.4582,15.90107 0.43287,2.06798 0.0293,3.97802 -1.50578,7.12424 l -2.0968,4.29901 -3.09062,-1.09358 c -2.05455,-0.72735 -3.71299,-2.00691 -4.95215,-3.82092 -1.53571,-2.24816 -2.10424,-2.61875 -3.23555,-2.10998 -3.5308,1.58783 5.05958,10.38275 10.5179,10.76823 6.87587,0.48562 11.78375,-10.50914 8.27051,-18.52678 -4.7402,-10.81786 -11.66115,-15.65536 -26.40202,-18.45525 -9.36565,-1.77895 -17.83156,-2.57826 -20.85133,-1.96693 -0.87947,0.17804 -4.45127,0.42028 -7.93924,0.53644 -5.51094,0.18356 -9.98112,0.59725 -26.47921,2.4563 -1.80379,0.2033 -8.06569,1.34091 -13.91343,2.52783 -20.70478,4.20234 -31.86187,4.87917 -46.13343,2.79888 -15.24549,-2.22223 -28.44476,-8.43202 -38.81721,-18.26326 -8.32347,-7.88883 -16.45025,-18.42367 -21.0565,-27.29421 -1.73793,-3.34694 -9.27663,-23.19085 -11.08256,-29.17266 -1.04849,-3.47292 -4.30557,-27.27768 -3.85669,-28.18826 0.3213,-0.65165 5.06383,-1.4794 7.39152,-1.50767 z m 188.65015,22.05972 3.90375,2.38855 c 7.37565,4.51233 8.20874,13.47965 2.71417,29.23478 -4.32983,12.41534 -11.18092,23.28517 -15.85778,25.15975 -1.76992,0.7095 -8.4113,-0.44813 -8.82201,-1.53778 -0.10469,-0.27776 1.20598,-1.69528 2.91182,-3.14897 4.43697,-3.78098 6.74733,-7.10817 10.91692,-15.7279 5.06582,-10.47255 6.33647,-18.62962 4.85239,-31.14901 l -0.61926,-5.21942 z m 201.27615,26.04441 c -2.99023,0.054 -6.20613,1.26251 -7.84135,3.2299 -6.24571,7.51433 -8.89542,13.24558 -9.56738,20.69134 -0.6621,7.33544 1.40681,17.46244 3.78517,18.5249 0.93411,0.41727 3.18703,6.88801 3.6214,10.40308 0.19955,1.61503 0.41444,1.76413 1.60178,1.10298 3.29016,-1.83233 3.33984,-4.56986 0.27857,-15.04089 -3.82712,-13.09036 -3.93148,-17.04762 -0.65314,-24.61767 2.82815,-6.53067 6.20178,-10.11276 9.69913,-10.29391 1.83642,-0.0951 2.07808,0.13435 1.77495,1.6846 -0.42033,2.14946 2.71412,3.45256 4.0562,1.68648 1.16585,-1.53423 -0.67591,-5.65884 -2.9871,-6.69133 -1.09674,-0.48995 -2.40902,-0.70405 -3.76823,-0.67948 z m -441.77983,17.97152 c 3.889,-0.0868 7.96855,0.61933 12.16861,2.14386 3.85976,1.401 5.3398,2.34167 6.57651,4.17666 2.76302,4.09996 4.94659,12.02363 4.15408,15.07665 -2.23252,8.60045 -8.58847,16.58635 -13.92849,17.50285 -3.32344,0.57041 -8.02094,-0.28754 -11.15033,-2.03657 -5.95156,-3.32623 -7.53453,-10.47341 -3.57435,-16.14012 1.88147,-2.69226 1.98656,-3.15817 0.72842,-3.24307 -1.73646,-0.11752 -1.11903,-1.84509 1.26674,-3.54424 0.88056,-0.62576 1.50311,-1.39481 1.38532,-1.70718 -0.34712,-0.92076 -5.19387,0.8786 -6.07395,2.2549 -0.44457,0.69517 -1.72897,2.07776 -2.85346,3.07369 -2.38326,2.11089 -5.02129,6.1976 -9.2681,14.35764 -2.6175,5.02971 -3.11738,6.88989 -3.54423,13.20384 -0.60393,8.9229 0.79165,15.04722 5.85373,25.70748 6.19507,13.0462 17.39674,25.05474 33.75025,36.17832 4.57629,3.11271 20.66854,9.53105 29.03902,11.58323 3.92504,0.9623 7.71234,1.89473 8.41733,2.07046 6.70608,1.67271 8.96842,2.07975 14.54399,2.61818 3.52666,0.34104 8.13588,0.62472 10.24308,0.63243 2.10727,0.008 5.54525,0.0421 7.63998,0.0753 6.44455,0.10286 25.13227,-1.83863 28.7341,-2.9852 0.88252,-0.28093 3.43679,-0.73083 5.67681,-1.00136 11.09368,-1.34002 45.80239,-12.26125 54.43029,-17.12639 2.31122,-1.30321 4.78689,-2.51974 5.50175,-2.70477 3.0061,-0.77874 22.38399,-12.46166 27.33373,-16.47891 l 5.37,-4.35736 1.67707,2.97016 c 0.9228,1.63431 2.19408,3.45745 2.82522,4.05055 1.40752,1.32232 0.66809,3.05673 -1.53778,3.60635 -0.90261,0.22481 -1.79538,0.72184 -1.98387,1.10487 -0.9761,1.98 -28.99005,18.85295 -37.06297,22.32324 -2.91021,1.25103 -7.26405,3.22812 -9.67465,4.39312 -10.32642,4.99091 -40.09547,12.77132 -57.16518,14.94114 -10.3943,1.32122 -27.01123,1.57328 -37.34719,0.56655 -26.11616,-2.54366 -28.83075,-3.28307 -51.16839,-13.94544 -16.10245,-7.68615 -17.94153,-8.7446 -23.18153,-13.34877 -9.46293,-8.31474 -12.70435,-11.87497 -19.00863,-20.87015 -5.07796,-7.24538 -6.63204,-10.42778 -9.797,-20.07398 -2.0688,-6.30524 -3.79885,-12.65086 -3.8454,-14.10165 -0.18476,-5.78502 1.62388,-16.6703 3.57812,-21.53647 1.13641,-2.82978 2.1269,-5.59444 2.20409,-6.14171 0.0766,-0.54733 1.95069,-3.92326 4.1635,-7.50257 6.27164,-10.1444 14.96522,-15.54367 24.90376,-15.76554 z m -4.97661,13.67251 c 0.14905,0.0152 0.21482,0.0529 0.16187,0.10728 -0.10605,0.10849 -0.8927,0.91672 -1.74859,1.79565 -1.44852,1.48693 -1.50555,1.47924 -0.82253,-0.0866 0.40349,-0.9252 1.19014,-1.73151 1.74859,-1.79377 0.27918,-0.0303 0.51161,-0.0378 0.66066,-0.0226 z m 229.66392,23.41869 c 0.90138,0.0283 1.0743,1.12783 -0.0527,3.64588 -3.38872,7.57104 -4.19771,20.04569 -1.71096,26.3719 2.99626,7.6223 8.55157,13.11378 17.7419,17.53673 8.46038,4.07149 20.08204,5.71306 24.95083,3.52354 0.96687,-0.43489 2.72203,-0.18211 4.42323,0.63807 7.16776,3.45637 24.86382,4.76244 36.70158,2.70853 10.08188,-1.7492 31.36578,-9.9737 42.68708,-16.49585 11.44113,-6.59128 26.92222,-12.58567 35.44801,-13.72522 5.56571,-0.74374 12.65248,-0.38198 20.69134,1.05593 6.14075,1.09837 24.58252,9.72249 26.76153,12.51494 0.70646,0.90534 1.13331,1.87315 0.94865,2.15139 -3.33629,5.02334 -9.83227,7.89658 -12.34554,5.46034 -3.25454,-3.1547 -12.88909,-4.99555 -24.66661,-4.71309 -3.61901,0.0861 -7.10203,-0.0748 -7.73972,-0.35951 -0.6377,-0.28475 -1.30405,-0.22567 -1.48132,0.13364 -0.17712,0.35924 -3.58242,1.41951 -7.56656,2.35467 -7.07207,1.65995 -35.02233,11.31658 -45.61394,15.7599 -4.35157,1.82549 -14.92066,5.1707 -25.82982,8.17263 -8.24643,2.26905 -16.5349,2.63319 -27.67065,1.21592 -12.53305,-1.59509 -19.94668,-3.47549 -34.62925,-8.78436 -17.12286,-6.1912 -20.69297,-8.30048 -26.50178,-15.64509 -9.20658,-11.64066 -10.40282,-22.68975 -3.71929,-34.35443 3.07437,-5.36562 7.45317,-9.22045 9.17398,-9.16646 z m -266.72313,16.67655 0.80937,5.26083 c 0.44508,2.89323 1.68933,7.59465 2.76499,10.44825 1.85576,4.92308 1.85298,5.2949 -0.0621,7.26916 -5.96525,6.14965 -15.89624,28.15735 -20.58405,45.61583 -2.88901,10.75934 -5.84798,24.34629 -6.36947,29.24795 -0.57407,5.39692 -0.8144,5.29224 -1.62624,-0.71337 -2.59812,-19.22057 1.63606,-51.47872 9.38291,-71.48893 5.53455,-14.29587 7.27314,-18.07371 8.37968,-18.19739 0.63154,-0.0705 1.53793,-0.91479 2.0121,-1.87658 0.47417,-0.96183 1.8587,-2.60743 3.07745,-3.65718 l 2.21538,-1.90857 z m 931.45486,5.33611 c -20.7942,0.0864 -42.2912,1.36219 -58.5072,3.62142 -23.81012,3.31737 -77.33883,15.68146 -93.99098,21.70962 -2.80736,1.01627 -9.03137,3.60195 -13.83062,5.74645 -4.79962,2.14453 -9.00264,3.98278 -9.33961,4.08443 -2.20721,0.66614 -20.70984,9.26029 -28.6927,13.32619 -5.27728,2.6878 -9.88485,4.9647 -10.23745,5.05943 -0.35297,0.0946 -5.79245,2.82329 -12.08956,6.06454 -6.29736,3.24128 -11.89415,6.10884 -12.43588,6.37134 -3.79715,1.83955 -10.92417,5.67781 -19.08204,10.27886 -5.24155,2.95601 -11.20421,6.27926 -13.249,7.38398 -2.0451,1.1046 -6.21591,3.5745 -9.2681,5.49046 -3.05271,1.91577 -9.23246,5.78319 -13.73274,8.59238 -4.49998,2.80924 -8.93011,5.5759 -9.84595,6.14924 -0.91589,0.57338 -6.2475,3.94955 -11.84675,7.50257 -5.59956,3.55293 -15.38233,9.50246 -21.7435,13.21888 -6.36005,3.7176 -15.93536,9.55432 -21.27672,12.97045 -10.35174,6.62046 -16.36891,10.13683 -19.36249,11.27831 l 16.60691,0 c 0.0436,-0.0224 0.0863,-0.0454 0.12987,-0.0678 7.64868,-3.92223 27.20313,-16.1099 36.23103,-22.5811 6.47696,-4.64261 12.9621,-8.88045 21.39529,-13.98308 2.841,-1.71925 6.41297,-3.90729 7.93925,-4.8618 1.52593,-0.95462 4.58912,-2.71518 6.80614,-3.91126 2.21727,-1.19625 5.62614,-3.29066 7.57409,-4.65476 1.94785,-1.36417 9.15467,-5.78011 16.014,-9.81582 15.43594,-9.0796 13.33729,-7.89485 24.99788,-14.12613 5.39959,-2.88545 15.49298,-8.28347 22.43052,-11.99545 25.44058,-13.61182 39.67692,-19.92964 65.86296,-29.22912 20.46856,-7.26887 36.57023,-11.89908 52.28643,-15.03714 4.9119,-0.98063 12.3086,-2.50319 16.43748,-3.38424 12.32728,-2.6304 46.94394,-7.52457 56.73234,-8.02018 13.9973,-0.70859 30.1422,-0.90373 35.2371,-0.42726 3.2793,0.30666 9.5122,0.80327 13.8495,1.10486 4.3378,0.30164 11.8816,1.20393 16.765,2.00458 4.883,0.80086 12.777,1.87052 17.5424,2.37537 12.3942,1.3131 33.1862,5.86161 44.2342,9.67842 12.3134,4.25373 34.0449,13.91805 47.9592,21.32754 18.0168,9.59395 26.7837,15.77983 54.8219,38.67792 6.1931,5.05793 16.3351,14.6593 17.2675,16.34904 0.3088,0.55935 3.0182,3.47935 6.0213,6.48804 3.0027,3.00869 6.4475,7.02908 7.6549,8.93495 1.2078,1.90569 3.7553,5.22462 5.6618,7.37457 5.087,5.73643 12.5964,16.31307 20.0213,27.77981 l 7.1317,0 c -6.9984,-10.90395 -14.1841,-21.15689 -22.6168,-32.30469 -6.8839,-9.10046 -30.2638,-34.97744 -37.6597,-41.68197 -16.4285,-14.89297 -26.2401,-22.5172 -36.0785,-28.03579 -38.5817,-21.64067 -48.7399,-26.46821 -66.1904,-31.45017 -34.0678,-9.72589 -53.505,-13.43598 -77.1771,-14.73596 -8.5994,-0.47215 -17.9063,-0.67922 -27.3582,-0.63997 z M 95.568292,623.60452 c 0.05885,0.007 0.117223,0.0229 0.171282,0.0471 0.432317,0.19319 0.495617,0.94305 0.141168,1.66766 -1.564348,3.19809 -8.194397,38.30122 -8.827654,46.73951 -0.96455,12.85434 -1.313927,29.02538 -0.702071,32.41386 0.715153,3.95459 0.788417,7.06821 0.159989,6.78731 -0.292852,-0.13086 -2.052843,-2.50264 -3.911271,-5.27212 -1.858452,-2.76951 -4.843199,-6.96932 -6.631093,-9.33208 -5.857988,-7.74094 -13.347765,-22.32841 -16.384803,-31.91131 -1.639237,-5.17237 -3.29774,-10.29103 -3.687287,-11.37432 -0.890605,-2.47652 -0.623783,-2.99826 2.268087,-4.41383 12.019086,-5.88315 34.546201,-21.11244 36.204673,-24.47649 0.280494,-0.56774 0.786994,-0.92438 1.19898,-0.87525 z m 965.092108,4.96721 c -1.369,0.0575 -5.3372,0.18371 -8.8163,0.28233 -17.9377,0.50865 -39.0293,2.07912 -46.8185,3.48401 -36.44748,6.57371 -48.20324,9.15559 -63.95255,14.04707 -4.40854,1.36927 -10.31987,3.10287 -13.13607,3.85292 -2.81575,0.75007 -6.63325,1.92543 -8.48321,2.61066 -8.10093,3.00015 -14.29376,5.508 -16.10435,6.52192 -1.07434,0.60166 -6.20758,2.69689 -11.40631,4.65664 -9.4687,3.56956 -15.52487,6.45104 -43.38914,20.64993 -8.22164,4.18948 -16.30123,8.25119 -17.95646,9.02528 -1.65541,0.77384 -5.33898,2.84475 -8.18582,4.60017 -2.84684,1.75545 -8.32975,4.87944 -12.18367,6.94167 -6.2542,3.34671 -21.45224,12.75469 -29.34958,18.16915 -9.79126,6.71286 -28.02431,17.62813 -36.49454,21.84703 -2.27849,1.1347 -6.14449,3.55109 -8.59238,5.37 -2.26791,1.68536 -6.0536,4.1816 -10.19416,6.78355 l 9.90053,0 c 2.46489,-1.53036 5.15978,-3.24026 7.27482,-4.6604 7.28129,-4.88792 7.12945,-4.79512 15.96318,-9.97392 8.86486,-5.19778 24.63652,-15.01502 32.07318,-19.96293 5.98378,-3.98129 15.37156,-9.76219 22.11431,-13.61793 2.22916,-1.27461 7.08062,-4.05992 10.78141,-6.19065 3.7009,-2.13077 9.60319,-5.27426 13.11725,-6.98494 3.51418,-1.7107 8.44422,-4.2548 10.95646,-5.65422 9.48194,-5.28133 35.87297,-17.53349 45.10385,-20.9398 2.6013,-0.95999 6.23852,-2.51734 8.08229,-3.45954 13.13106,-6.71077 19.19256,-8.67701 63.41791,-20.57087 4.75326,-1.27837 16.46859,-3.3696 34.34506,-6.13042 3.14219,-0.48527 7.95049,-1.47836 10.68539,-2.20786 2.7348,-0.72949 7.6881,-1.57906 11.0073,-1.88787 10.6459,-0.99049 44.8118,-1.84034 51.9777,-1.2931 3.815,0.29023 10.0936,0.69535 13.953,0.89594 20.6262,1.07508 48.0953,7.04949 74.5363,16.21165 9.8138,3.40071 35.2797,15.22495 44.1194,20.48617 21.7276,12.93176 35.8829,23.4563 48.0966,35.76047 4.0523,4.08258 7.7245,7.58422 8.1595,7.78113 0.4349,0.1974 1.459,1.19135 2.2775,2.20785 0.8186,1.01642 3.2087,3.61444 5.3116,5.77281 4.3821,4.49823 22.0649,26.10281 28.1958,34.41843 l 6.4711,0 c -0.2232,-0.29901 -0.424,-0.58203 -0.6493,-0.88276 -0.8528,-1.13751 -1.6283,-2.34472 -1.7261,-2.68406 -0.2563,-0.89862 -17.9734,-22.73841 -23.0121,-28.36708 -2.3644,-2.64112 -7.782,-8.24743 -12.0406,-12.45659 -19.9623,-19.73132 -17.4029,-17.54905 -41.5539,-35.41977 -8.7563,-6.4794 -17.5198,-11.46472 -34.2077,-19.46037 -16.1225,-7.72473 -40.2222,-16.81963 -52.8793,-19.95728 -3.9978,-0.99099 -8.9984,-2.23347 -11.1146,-2.75935 -2.1156,-0.52577 -7.3078,-1.38 -11.5381,-1.89916 -4.2303,-0.51943 -9.8865,-1.3603 -12.5695,-1.86905 -2.6827,-0.50857 -10.9288,-1.30188 -18.3235,-1.76365 -7.395,-0.46175 -15.09,-0.97115 -17.1001,-1.1331 -2.01,-0.16241 -4.7745,-0.24755 -6.1436,-0.19011 z m -485.53217,3.40684 c 0.77798,0.003 1.33665,0.025 1.44931,0.0753 0.20001,0.0893 -0.65161,1.80976 -1.89352,3.82281 -1.52901,2.47834 -1.90977,3.62191 -1.17828,3.54047 1.74595,-0.19484 7.29082,-4.62938 7.39151,-5.9102 0.096,-1.23638 4.47228,-1.19494 7.30306,0.0697 1.36113,0.60818 1.32022,1.02009 -0.32752,3.2939 -1.03573,1.42935 -2.47794,3.26212 -3.20354,4.07314 -0.72556,0.81111 -0.99359,1.62044 -0.59667,1.79753 0.86755,0.38755 7.2964,-4.45262 8.1124,-6.10784 0.31739,-0.64389 0.95119,-0.83333 1.40791,-0.42162 1.6208,1.46109 -0.26037,3.89126 -7.00566,9.04976 -10.93395,8.36192 -23.57336,10.90809 -36.74298,7.40469 l -3.72117,-0.98817 3.2299,-1.6413 c 6.43756,-3.26836 13.2916,-9.20928 17.0097,-14.74727 1.04224,-1.55255 1.94758,-2.89554 2.01022,-2.98333 0.11893,-0.16509 4.42136,-0.3366 6.75533,-0.3275 z m -18.29715,2.7537 c 0.55901,-0.0309 0.65104,0.18384 0.37833,0.66442 -1.39031,2.44976 -8.37303,7.05135 -16.26435,10.71553 -2.51955,1.16989 -2.52381,1.169 -4.79215,-1.4719 -1.24869,-1.45373 -2.15264,-2.88417 -2.00834,-3.17721 0.22052,-0.44734 6.18113,-2.2538 21.15437,-6.41275 0.69205,-0.19226 1.19673,-0.29955 1.53214,-0.31809 z m -421.54964,32.13341 c 0.10869,0.0202 0.13469,0.40432 0.11481,1.10298 -0.0352,1.24561 -0.10524,4.10496 -0.15622,6.35253 -0.16494,7.2452 3.43814,20.98313 8.44744,32.21057 2.67084,5.98619 5.21841,11.37514 5.66175,11.97663 l -0.002,0 c 0.98984,1.34232 0.15657,3.05544 -2.64077,5.42459 -1.16999,0.99095 -3.88382,3.86151 -6.03066,6.37887 -4.32354,5.06987 -14.98055,14.04842 -16.08741,13.55393 -1.43219,-0.63973 -0.82303,-26.46142 0.85641,-36.31008 0.35986,-2.10967 0.68979,-4.64454 0.73595,-5.63351 0.28044,-6.18648 4.139,-22.17771 7.69268,-31.88119 0.81645,-2.22937 1.22675,-3.20907 1.4079,-3.17532 z m 632.1447,2.85346 c -0.36686,0.0462 -0.76363,0.35916 -0.99194,0.82441 -0.30564,0.62021 -0.20287,1.28624 0.22964,1.47943 0.4321,0.19248 1.03471,-0.15725 1.34203,-0.77736 0.30587,-0.62022 0.20272,-1.28625 -0.22964,-1.47943 -0.108,-0.0481 -0.2278,-0.0624 -0.35009,-0.0471 z m 307.01596,2.34713 c -3.5098,-0.0191 -6.4014,0.0645 -7.879,0.26728 -1.4748,0.20222 -2.8835,0.27727 -3.1283,0.16751 -2.2767,-1.01698 -55.2529,6.44875 -59.3014,8.35711 -0.3438,0.16204 -4.46657,1.08137 -9.16269,2.04221 -4.69602,0.96078 -10.83393,2.45988 -13.63868,3.33155 -2.80476,0.87171 -9.7676,2.73337 -15.47377,4.13714 -18.65656,4.58973 -61.01987,20.40226 -79.99286,29.85779 -5.87258,2.92651 -13.2405,6.51669 -16.37351,7.97878 -3.13266,1.4622 -8.73108,4.53413 -12.43966,6.82684 -3.70875,2.29286 -13.40794,8.00219 -21.5534,12.6881 -6.34532,3.65127 -12.48005,7.22591 -16.67278,9.69348 l 9.29257,0 c 5.08774,-2.91612 10.19691,-5.85789 14.0339,-8.09359 24.36868,-14.19929 27.8372,-16.10579 37.76692,-20.74027 5.52328,-2.5779 13.20231,-6.28037 17.06428,-8.22911 13.12937,-6.62536 71.55932,-26.94302 74.15225,-25.78465 0.40158,0.17944 2.50389,-0.22263 4.67174,-0.89406 2.16698,-0.67146 6.07334,-1.71218 8.68082,-2.31326 2.60711,-0.60116 6.26213,-1.46333 8.12179,-1.91611 1.85965,-0.45274 4.62692,-0.97276 6.15121,-1.1538 1.52397,-0.18112 6.66077,-1.40034 11.41377,-2.71041 4.7529,-1.31014 10.2798,-2.63948 12.2816,-2.95323 2.0021,-0.31373 3.9115,-0.68301 4.2443,-0.82252 0.9514,-0.39916 6.5398,-1.10883 9.2117,-1.16887 1.3342,-0.0299 4.6048,-0.53096 7.2674,-1.11428 2.6629,-0.58333 5.9257,-1.06859 7.2503,-1.07851 1.3244,-0.01 3.1698,-0.2069 4.1014,-0.43669 2.9812,-0.73611 14.1412,-0.96109 20.3055,-0.40844 3.2853,0.29317 6.4459,0.45482 7.0225,0.35574 0.5765,-0.0994 2.6693,0.0305 4.6529,0.28987 1.9831,0.26053 4.5192,0.37513 5.6335,0.25598 3.5743,-0.38248 17.4511,1.17904 23.1834,2.60877 3.0549,0.76198 7.4783,1.86412 9.829,2.44878 10.6861,2.65792 18.9293,5.571 24.9244,8.81072 7.9658,4.30467 15.918,9.90664 19.4548,13.70262 3.8683,4.15203 12.6704,20.49736 13.4712,25.0167 1.0914,6.16095 1.3355,15.66476 0.5571,21.72281 l 0,0.004 c -0.1608,1.25166 -0.54,2.85906 -1.0334,4.60205 l 5.2476,0 c 1.4017,-5.1661 1.6395,-9.2068 1.4475,-16.6276 -0.1362,-5.26596 -3.0946,-16.36031 -5.3343,-20.00245 -0.9766,-1.58754 -1.9438,-3.42075 -2.1513,-4.07315 -1.9464,-6.15847 -7.7446,-13.59666 -14.8734,-19.08015 -18.9281,-14.55901 -39.847,-21.59741 -73.4182,-24.70049 -5.5921,-0.51687 -13.1589,-0.83218 -19.0087,-0.86395 z m 3.501,16.89113 c -2.5167,-0.0133 -5.1042,0.003 -7.7699,0.0471 -29.5929,0.49304 -48.212,3.54228 -106.48141,17.44073 -1.49739,0.35717 -37.86202,12.2402 -42.19204,13.78733 -4.86278,1.73742 -9.59249,3.81102 -14.57974,6.39205 -2.99251,1.54868 -6.39098,3.12849 -7.5515,3.50848 -1.16043,0.38001 -6.74349,2.95577 -12.40578,5.72385 -5.66264,2.76806 -10.73931,5.24615 -11.28395,5.50741 -4.61543,2.21562 -17.8235,9.82122 -28.13368,16.04976 l 17.8153,0 c 1.11569,-0.79489 1.91317,-1.38411 1.95939,-1.47755 1.03731,-2.1041 40.90042,-21.60634 53.7734,-26.30791 1.29987,-0.47463 4.06648,-1.75244 6.14925,-2.84028 5.4496,-2.84646 37.81614,-13.85015 50.76376,-17.25816 9.69213,-2.55111 13.42917,-3.30124 25.0261,-5.02179 1.4235,-0.21125 3.825,-0.70493 5.338,-1.09734 1.5128,-0.39249 4.3988,-0.77061 6.4128,-0.84135 2.014,-0.0706 3.7766,-0.35886 3.915,-0.63997 0.4829,-0.98016 20.2786,-3.38328 30.11,-3.65528 1.6053,-0.0444 3.6583,-0.26726 4.5625,-0.49503 6.4286,-1.62046 31.3588,-1.3235 45.3165,0.5402 1.9811,0.26333 5.2326,0.67429 7.226,0.91477 11.1224,1.33305 28.414,5.91063 34.1078,9.02905 6.0209,3.29742 10.6079,6.93354 12.6392,10.02099 1.0557,1.60517 3.5468,7.11402 5.5375,12.24013 2.817,7.2541 3.6581,10.94399 3.7889,16.64832 l -0,0.002 c 0.1181,5.15213 -0.021,7.07203 -1.3251,10.23933 l 8.0785,0 c 1.6433,-6.64879 1.7626,-15.87194 -0.089,-22.26865 -0.7473,-2.57921 -1.1451,-4.68381 -0.8809,-4.68298 0.5092,0.006 -2.195,-5.0352 -6.9699,-12.99114 -3.4548,-5.75702 -9.4065,-10.81186 -20.0118,-16.99277 -6.7818,-3.9524 -8.3805,-4.56734 -17.341,-6.67627 -13.706,-3.22581 -27.8856,-4.75174 -45.5029,-4.84485 z M 0,713.22874 0,743.079 c 1.6828187,4.52251 3.7393842,9.38584 6.0231326,14.33506 l 6.8720174,0 C 6.7795018,743.24413 0.10574313,724.94925 2.0610407,725.82273 c 0.4630158,0.20686 2.455027,2.16906 4.4251202,4.35924 5.8866931,6.5445 21.2471051,18.98405 32.7677231,26.53567 0.384155,0.25181 0.722325,0.46588 1.0804,0.69642 l 13.698861,0 C 34.609913,748.81297 12.769857,732.33916 3.6985798,718.85661 2.4820215,717.0485 0.99192561,714.77193 0,713.22874 Z"
       id="path4256"
       inkscape:connector-curvature="0" />
  </g>
  <g
     inkscape:groupmode="layer"
     id="layer5"
     inkscape:label="overlay"
     style="display:inline" />
</svg>
